<?xml version="1.0" encoding="UTF-8" standalone="no"?>
<!-- Created with Inkscape (http://www.inkscape.org/) -->

<svg
   xmlns:dc="http://purl.org/dc/elements/1.1/"
   xmlns:cc="http://creativecommons.org/ns#"
   xmlns:rdf="http://www.w3.org/1999/02/22-rdf-syntax-ns#"
   xmlns:svg="http://www.w3.org/2000/svg"
   xmlns="http://www.w3.org/2000/svg"
   xmlns:sodipodi="http://sodipodi.sourceforge.net/DTD/sodipodi-0.dtd"
   xmlns:inkscape="http://www.inkscape.org/namespaces/inkscape"
   width="1024"
   height="1024"
   id="svg2"
   version="1.1"
   inkscape:version="0.48.4 r9939"
   sodipodi:docname="destiny-diffuse.svg">
  <defs
     id="defs4" />
  <sodipodi:namedview
     id="base"
     pagecolor="#bbbbbb"
     bordercolor="#666666"
     borderopacity="1.0"
     inkscape:pageopacity="1"
     inkscape:pageshadow="2"
     inkscape:zoom="0.35355339"
     inkscape:cx="939.87784"
     inkscape:cy="642.9747"
     inkscape:document-units="px"
     inkscape:current-layer="g4484"
     showgrid="true"
     showguides="true"
     inkscape:guide-bbox="true"
     inkscape:snap-bbox="true"
     inkscape:object-nodes="true"
     inkscape:snap-smooth-nodes="true">
    <inkscape:grid
       type="xygrid"
       id="grid2985"
       empspacing="4"
       visible="true"
       enabled="true"
       snapvisiblegridlinesonly="true" />
    <sodipodi:guide
       orientation="1,0"
       position="144,1056"
       id="guide2987" />
    <sodipodi:guide
       orientation="0,1"
       position="224,768"
       id="guide2989" />
    <sodipodi:guide
       orientation="1,0"
       position="288,1056"
       id="guide3782" />
    <sodipodi:guide
       orientation="1,0"
       position="432,1056"
       id="guide3784" />
    <sodipodi:guide
       orientation="1,0"
       position="576,1056"
       id="guide3786" />
    <sodipodi:guide
       orientation="1,0"
       position="720,1056"
       id="guide3788" />
    <sodipodi:guide
       orientation="1,0"
       position="864,1056"
       id="guide3790" />
    <sodipodi:guide
       orientation="1,0"
       position="1008,944"
       id="guide3792" />
    <sodipodi:guide
       orientation="0,1"
       position="0,512"
       id="guide4545" />
    <sodipodi:guide
       orientation="0,1"
       position="-32,256"
       id="guide4547" />
  </sodipodi:namedview>
  <metadata
     id="metadata7">
    <rdf:RDF>
      <cc:Work
         rdf:about="">
        <dc:format>image/svg+xml</dc:format>
        <dc:type
           rdf:resource="http://purl.org/dc/dcmitype/StillImage" />
        <dc:title></dc:title>
      </cc:Work>
    </rdf:RDF>
  </metadata>
  <g
     inkscape:label="Layer 1"
     inkscape:groupmode="layer"
     id="layer1"
     transform="translate(0,-28.362183)">
    <g
       id="g4484"
       transform="matrix(0.29080847,0,0,0.29080847,-6.809098,251.64204)">
      <path
         transform="matrix(3.4386894,0,0,3.4386894,23.414373,-767.79008)"
         inkscape:connector-curvature="0"
         id="path4662"
         d="m 144,256 720,0"
         style="fill:none;stroke:#b27222;stroke-width:7.99999997;stroke-linecap:butt;stroke-linejoin:miter;stroke-opacity:1;stroke-miterlimit:4;stroke-dasharray:15.99999995,7.99999997,3.99999999,7.99999997;stroke-dashoffset:0" />
      <g
         id="g4549"
         transform="translate(495.17127,1.1173114)">
        <path
           sodipodi:type="arc"
           style="fill:#efefef;fill-opacity:1;fill-rule:nonzero;stroke:none"
           id="path4482"
           sodipodi:cx="272"
           sodipodi:cy="72"
           sodipodi:rx="196.22035"
           sodipodi:ry="196.22035"
           d="M 468.22035,72 C 468.22035,180.36951 380.36951,268.22035 272,268.22035 163.63049,268.22035 75.779648,180.36951 75.779648,72 c 0,-108.369508 87.850842,-196.22035 196.220352,-196.22035 108.36951,0 196.22035,87.850842 196.22035,196.22035 z"
           transform="matrix(1.0396475,0,0,1.0396475,-11.784111,-402.49244)" />
        <path
           style="fill:#1a5dad;fill-rule:nonzero"
           inkscape:connector-curvature="0"
           d="m 388.51,-327.70088 c 0,64.618 -53.234,117.8 -117.92,117.8 -64.685,0 -117.92,-53.185 -117.92,-117.8 0,-64.622 51.99,-117.8 117.92,-117.8 63.437,0 117.92,53.181 117.92,117.8"
           id="path4121" />
        <path
           style="fill:#ffffff;fill-rule:nonzero"
           inkscape:connector-curvature="0"
           d="m 297.19,-265.70088 c 50.379,20.724 41.636,-31.647 14.782,-71.747 -15.22,-22.718 -35.07,-41.645 -47.59,-50.78 -41.513,-30.298 -67.14,-11.922 -37.826,47.83 9.4777,19.319 21.651,32.358 31.159,44.648 7.261,9.3828 21.404,14.081 16.422,18.534 -5.6144,5.0207 -19.209,-17.124 -19.209,-17.124 -10.04,-12.11 -19.61,-25.03 -29.473,-42.76 -22.535,-40.499 -19.286,-81.833 21.503,-63.828 34.615,15.288 67.678,58.166 80.971,88.616 6.1401,14.059 22.88,69.692 -30.437,47.2"
           id="path4123" />
        <path
           style="fill:#ee293d;fill-rule:nonzero"
           inkscape:connector-curvature="0"
           d="m 140.526,-292.78088 c 22.163,-14.76 43.176,-24.29 78.935,-36.1 50.249,-16.6 88.069,-27.758 134.47,-51.082 20.77,-10.438 56.81,-33.847 69.7,-54.198 -3.86,7.876 -15.81,23.206 -21.22,29.987 -62.96,78.833 -197.07,74.363 -261,112.21"
           id="path4125" />
        <path
           style="fill:#ffffff;fill-rule:nonzero"
           inkscape:connector-curvature="0"
           d="m 172.678,-350.39788 c 20.284,0.15916 18.294,-0.0407 18.531,0.1969 0.35457,0 16.196,27.282 16.196,27.517 0,0.11657 -0.11844,-9.6951 -0.11844,-21.966 0,-1.4172 -3.8995,-5.5505 -3.7829,-5.5505 5.7896,0 13.357,0.11844 13.357,0.11844 -2.8354,3.3069 -3.4018,3.0357 -3.4254,5.079 -0.0799,6.5716 -0.15468,18.716 0,32.358 0.022,2.0448 1.5371,2.8343 4.0194,6.3777 h -18.562 c -6.0291,-10.038 -17.077,-28.869 -17.022,-28.816 0.0848,0.0863 -0.238,11.812 0.11545,21.257 0.11956,3.1216 1.5382,4.133 4.1405,6.9688 0,0 2.9931,-0.0803 -14.542,0.11694 5.3196,-2.8343 4.6131,-6.3766 4.6105,-6.4947 -0.19129,-13.052 -0.0396,-24.211 -0.0396,-31.415 0,-1.1806 -0.0803,-1.0641 -3.7433,-5.5505"
           id="path4127" />
        <path
           style="fill:#ffffff;fill-rule:nonzero"
           inkscape:connector-curvature="0"
           d="m 236.1,-330.24088 c 1.7033,-5.9126 3.1582,-11.197 3.8487,-14.642 0.11694,-0.59107 -1.3002,-2.7159 -3.5464,-4.8425 l -0.15916,-0.32991 c 10.831,0.0351 22.146,0.0934 22.146,0.0934 2.9554,7.2042 9.6936,27.397 14.777,39.798 1.3443,3.2778 3.6649,3.8965 3.6649,3.8965 -9.221,-0.11657 -26.333,-0.0377 -26.242,-0.11657 4.609,-4.136 4.0179,-4.136 2.0082,-10.157 h -14.421 c -2.9554,6.8478 0.92098,10.063 1.4172,10.038 -3.2823,0.16925 -14.421,0 -14.421,0 6.0291,-4.2529 5.6731,-5.5505 5.6731,-5.5505 1.6566,-5.892 3.5756,-12.347 5.2554,-18.191 l 5.9167,10e-4 c -1.2711,4.0766 -2.5421,8.1498 -2.5421,8.1498 h 11.47 l -6.3852,-16.298 c 0,0 -1.2711,4.0747 -2.5425,8.148 l -5.9167,-0.001"
           id="path4129" />
        <path
           style="fill:#ffffff;fill-rule:nonzero"
           inkscape:connector-curvature="0"
           d="m 335.17,-329.65088 c 1.7,-5.9111 3.1567,-11.197 3.8457,-14.644 0.11657,-0.58808 -1.3021,-2.7129 -3.5468,-4.841 l -0.16028,-0.32841 c 10.834,0.0351 22.152,0.0934 22.152,0.0934 2.9509,7.2042 9.6906,27.398 14.773,39.798 1.3428,3.2793 3.6634,3.898 3.6634,3.898 -9.2165,-0.11956 -26.329,-0.0377 -26.241,-0.11956 4.612,-4.1315 4.0209,-4.1315 2.0112,-10.155 h -14.424 c -2.9557,6.8492 0.91911,10.063 1.4156,10.04 -3.2796,0.16775 -14.42,0 -14.42,0 6.0276,-4.2529 5.6742,-5.552 5.6742,-5.552 1.6566,-5.8931 3.5759,-12.346 5.2572,-18.189 h 5.9152 c -1.274,4.0762 -2.5395,8.1509 -2.5395,8.1509 h 11.464 l -6.3848,-16.298 c 0,0 -1.267,4.0732 -2.5395,8.1468 h -5.9152"
           id="path4131" />
        <path
           style="fill:#ffffff;fill-rule:nonzero"
           inkscape:connector-curvature="0"
           d="m 316.52,-339.33088 c -0.23651,-8.3874 0,-11.103 0,-11.103 -3.6664,2.9539 -1.8169,2.5772 -10.993,1.0637 -26.445,-4.3635 -28.46,20.325 -14.069,25.863 12.08,4.6497 16.361,5.5606 14.539,9.9186 -0.59107,1.4201 -11.584,6.6157 -22.931,-3.8954 l 0.23352,14.644 c 1.4186,-1.4609 5.3226,-4.133 5.3226,-4.133 0.11657,0 12.3,5.3678 23.286,-0.238 16.908,-8.6195 8.4693,-22.572 -9.5741,-28.106 -15.014,-4.6064 -0.82758,-15.354 14.066,-3.8969"
           id="path4133" />
        <path
           style="fill:#ffffff;fill-rule:nonzero"
           inkscape:connector-curvature="0"
           d="m 272.25,-434.80288 c 0,0.5283 -0.4319,0.9617 -0.96021,0.9617 -0.52531,0 -0.96021,-0.4334 -0.96021,-0.9617 0,-0.52382 0.4349,-0.95872 0.96021,-0.95872 0.52831,0 0.96021,0.4349 0.96021,0.95872"
           id="path4135" />
        <path
           style="fill:#ffffff;fill-rule:nonzero"
           inkscape:connector-curvature="0"
           d="m 278.91,-420.26088 c 0,0.64786 -0.53727,1.1806 -1.1821,1.1806 -0.64935,0 -1.1836,-0.53278 -1.1836,-1.1806 0,-0.64637 0.53428,-1.1792 1.1836,-1.1792 0.64487,0 1.1821,0.53279 1.1821,1.1792"
           id="path4137" />
        <path
           style="fill:#ffffff;fill-rule:nonzero"
           inkscape:connector-curvature="0"
           d="m 296.19,-396.49488 c 0,0.64674 -0.53241,1.1806 -1.1821,1.1806 -0.64637,0 -1.1821,-0.53391 -1.1821,-1.1806 0,-0.64786 0.49617,-1.1821 1.1459,-1.1821 0.64935,0 1.2184,0.53428 1.2184,1.1821"
           id="path4139" />
        <path
           style="fill:#ffffff;fill-rule:nonzero"
           inkscape:connector-curvature="0"
           d="m 268.41,-412.06788 c 0,0.52681 -0.43191,0.95871 -0.96021,0.95871 -0.52718,0 -0.96208,-0.43191 -0.96208,-0.95871 0,-0.52569 0.4349,-0.96058 0.96208,-0.96058 0.5283,0 0.96021,0.4349 0.96021,0.96058"
           id="path4141" />
        <path
           style="fill:#ffffff;fill-rule:nonzero"
           inkscape:connector-curvature="0"
           d="m 278.76,-406.60488 c 0,0.52382 -0.43377,0.95871 -0.95908,0.95871 -0.52681,0 -0.96171,-0.4349 -0.96171,-0.95871 0,-0.52531 0.4349,-0.95909 0.96171,-0.95909 0.52531,0 0.95908,0.43378 0.95908,0.95909"
           id="path4143" />
        <path
           style="fill:#ffffff;fill-rule:nonzero"
           inkscape:connector-curvature="0"
           d="m 265.31,-421.88588 c 0,0.64823 -0.53391,1.1806 -1.1821,1.1806 -0.64786,0 -1.1821,-0.53241 -1.1821,-1.1806 0,-0.64786 0.53428,-1.1821 1.1821,-1.1821 0.64823,0 1.1821,0.53428 1.1821,1.1821"
           id="path4145" />
        <path
           style="fill:#ffffff;fill-rule:nonzero"
           inkscape:connector-curvature="0"
           d="m 249.65,-412.36288 c 0,0.52681 -0.4334,0.96021 -0.9617,0.96021 -0.52681,0 -0.96021,-0.4334 -0.96021,-0.96021 0,-0.52569 0.4334,-0.96058 0.96021,-0.96058 0.5283,0 0.9617,0.4349 0.9617,0.96058"
           id="path4147" />
        <path
           style="fill:#ffffff;fill-rule:nonzero"
           inkscape:connector-curvature="0"
           d="m 252.45,-410.44588 c 0,0.52868 -0.4334,0.96208 -0.9617,0.96208 -0.52681,0 -0.9617,-0.4334 -0.9617,-0.96208 0,-0.52531 0.43489,-0.95722 0.9617,-0.95722 0.5283,0 0.9617,0.43191 0.9617,0.95722"
           id="path4149" />
        <path
           style="fill:#ffffff;fill-rule:nonzero"
           inkscape:connector-curvature="0"
           d="m 255.26,-408.52588 c 0,0.5283 -0.43341,0.9617 -0.96059,0.9617 -0.5268,0 -0.9617,-0.4334 -0.9617,-0.9617 0,-0.52382 0.4349,-0.95722 0.9617,-0.95722 0.52718,0 0.96059,0.4334 0.96059,0.95722"
           id="path4151" />
        <path
           style="fill:#ffffff;fill-rule:nonzero"
           inkscape:connector-curvature="0"
           d="m 250.98,-404.83388 c 0,0.52681 -0.43639,0.96021 -0.96171,0.96021 -0.5283,0 -0.96207,-0.4334 -0.96207,-0.96021 0,-0.52531 0.43377,-0.95871 0.96207,-0.95871 0.52532,0 0.96171,0.4334 0.96171,0.95871"
           id="path4153" />
        <path
           style="fill:#ffffff;fill-rule:nonzero"
           inkscape:connector-curvature="0"
           d="m 228.664,-389.18688 c 0,0.52681 -0.4349,0.95872 -0.9617,0.95872 -0.52681,0 -0.9617,-0.43191 -0.9617,-0.95872 0,-0.52681 0.4349,-0.96058 0.9617,-0.96058 0.52681,0 0.9617,0.43378 0.9617,0.96058"
           id="path4155" />
        <path
           style="fill:#ffffff;fill-rule:nonzero"
           inkscape:connector-curvature="0"
           d="m 232.8,-384.16588 c 0,0.52569 -0.4349,0.95909 -0.9617,0.95909 -0.52681,0 -0.9617,-0.4334 -0.9617,-0.95909 0,-0.5283 0.4349,-0.96021 0.9617,-0.96021 0.52681,0 0.9617,0.43191 0.9617,0.96021"
           id="path4157" />
        <path
           style="fill:#ffffff;fill-rule:nonzero"
           inkscape:connector-curvature="0"
           d="m 229.512,-303.12088 c 0,0.52718 -0.4334,0.95909 -0.96058,0.95909 -0.52681,0 -0.96021,-0.43191 -0.96021,-0.95909 0,-0.52531 0.4334,-0.96021 0.96021,-0.96021 0.52718,0 0.96058,0.4349 0.96058,0.96021"
           id="path4159" />
        <path
           style="fill:#ffffff;fill-rule:nonzero"
           inkscape:connector-curvature="0"
           d="m 230.103,-280.76088 c 0,0.64786 -0.53428,1.1792 -1.1821,1.1792 -0.64823,0 -1.1821,-0.53129 -1.1821,-1.1792 0,-0.64823 0.53391,-1.1806 1.1821,-1.1806 0.64786,0 1.1821,0.53241 1.1821,1.1806"
           id="path4161" />
        <path
           style="fill:#ffffff;fill-rule:nonzero"
           inkscape:connector-curvature="0"
           d="m 217.392,-269.31088 c 0,0.52382 -0.4334,0.95871 -0.95872,0.95871 -0.52681,0 -0.9617,-0.43489 -0.9617,-0.95871 0,-0.5283 0.4349,-0.96058 0.9617,-0.96058 0.52531,0 0.95872,0.43228 0.95872,0.96058"
           id="path4163" />
        <path
           style="fill:#ffffff;fill-rule:nonzero"
           inkscape:connector-curvature="0"
           d="m 202.174,-264.67088 c 0,0.64786 -0.53727,1.1792 -1.1836,1.1792 -0.64823,0 -1.1821,-0.53129 -1.1821,-1.1792 0,-0.64936 0.53391,-1.1821 1.1821,-1.1821 0.64637,0 1.1836,0.53278 1.1836,1.1821"
           id="path4165" />
        <path
           style="fill:#ffffff;fill-rule:nonzero"
           inkscape:connector-curvature="0"
           d="m 199.07,-275.00088 c 0,0.64488 -0.53391,1.1792 -1.1806,1.1792 -0.64786,0 -1.1821,-0.53428 -1.1821,-1.1792 0,-0.64935 0.53428,-1.1821 1.1821,-1.1821 0.64674,0 1.1806,0.53279 1.1806,1.1821"
           id="path4167" />
        <path
           style="fill:#ffffff;fill-rule:nonzero"
           inkscape:connector-curvature="0"
           d="m 197.299,-268.43088 c 0,0.52681 -0.4349,0.95872 -0.9617,0.95872 -0.52681,0 -0.96208,-0.43191 -0.96208,-0.95872 0,-0.52531 0.43527,-0.96021 0.96208,-0.96021 0.52681,0 0.9617,0.4349 0.9617,0.96021"
           id="path4169" />
        <path
           style="fill:#ffffff;fill-rule:nonzero"
           inkscape:connector-curvature="0"
           d="m 185.918,-273.89088 c 0,0.52531 -0.4334,0.96021 -0.95872,0.96021 -0.5283,0 -0.96208,-0.4349 -0.96208,-0.96021 0,-0.52532 0.43378,-0.95909 0.96208,-0.95909 0.52531,0 0.95872,0.43377 0.95872,0.95909"
           id="path4171" />
        <path
           style="fill:#ffffff;fill-rule:nonzero"
           inkscape:connector-curvature="0"
           d="m 225.668,-255.44088 c 0,0.52718 -0.39716,0.96058 -0.92247,0.96058 -0.52681,0 -0.99832,-0.4334 -0.99832,-0.96058 0,-0.52531 0.4349,-0.96021 0.96021,-0.96021 0.5283,0 0.96058,0.4349 0.96058,0.96021"
           id="path4173" />
        <path
           style="fill:#ffffff;fill-rule:nonzero"
           inkscape:connector-curvature="0"
           d="m 237.64,-264.22088 c 0,0.64936 -0.49617,1.1821 -1.1459,1.1821 -0.64786,0 -1.2184,-0.53278 -1.2184,-1.1821 0,-0.64524 0.53391,-1.1792 1.1821,-1.1792 0.64936,0 1.1822,0.53391 1.1822,1.1792"
           id="path4175" />
        <path
           style="fill:#ffffff;fill-rule:nonzero"
           inkscape:connector-curvature="0"
           d="m 239.01,-252.93088 c 0,0.52681 -0.473,0.96208 -0.99682,0.96208 -0.5283,0 -0.9617,-0.43527 -0.9617,-0.96208 0,-0.52531 0.4334,-0.95722 0.9617,-0.95722 0.52382,0 0.99682,0.43191 0.99682,0.95722"
           id="path4177" />
        <path
           style="fill:#ffffff;fill-rule:nonzero"
           inkscape:connector-curvature="0"
           d="m 288.21,-263.71088 c 0,0.52568 -0.4334,0.96058 -0.95871,0.96058 -0.5298,0 -0.9632,-0.4349 -0.9632,-0.96058 0,-0.52681 0.4334,-0.95872 0.9632,-0.95872 0.52531,0 0.95871,0.43191 0.95871,0.95872"
           id="path4179" />
        <path
           style="fill:#ffffff;fill-rule:nonzero"
           inkscape:connector-curvature="0"
           d="m 265.31,-255.59088 c 0,0.5268 -0.43191,0.95871 -0.96021,0.95871 -0.52532,0 -0.96021,-0.43191 -0.96021,-0.95871 0,-0.52532 0.43489,-0.96021 0.96021,-0.96021 0.5283,0 0.96021,0.43489 0.96021,0.96021"
           id="path4181" />
        <path
           style="fill:#ffffff;fill-rule:nonzero"
           inkscape:connector-curvature="0"
           d="m 326.93,-243.92088 c 0,0.52538 -0.4349,0.95886 -0.96021,0.95886 -0.5283,0 -0.9632,-0.43348 -0.9632,-0.95886 0,-0.52689 0.4349,-0.96033 0.9632,-0.96033 0.52531,0 0.96021,0.43344 0.96021,0.96033"
           id="path4183" />
        <path
           style="fill:#ffffff;fill-rule:nonzero"
           inkscape:connector-curvature="0"
           d="m 331.95,-289.32088 c 0,0.64786 -0.53241,1.1821 -1.1821,1.1821 -0.64936,0 -1.1821,-0.53428 -1.1821,-1.1821 0,-0.64824 0.53278,-1.1821 1.1821,-1.1821 0.64973,0 1.1821,0.5339 1.1821,1.1821"
           id="path4185" />
        <path
           style="fill:#ffffff;fill-rule:nonzero"
           inkscape:connector-curvature="0"
           d="m 322.5,-282.90088 c 0,0.52568 -0.4334,0.96058 -0.9632,0.96058 -0.52568,0 -0.95909,-0.4349 -0.95909,-0.96058 0,-0.52681 0.43341,-0.95872 0.95909,-0.95872 0.5298,0 0.9632,0.43191 0.9632,0.95872"
           id="path4187" />
        <path
           style="fill:#ffffff;fill-rule:nonzero"
           inkscape:connector-curvature="0"
           d="m 331.81,-281.05088 c 0,0.64786 -0.53278,1.1821 -1.1821,1.1821 -0.64972,0 -1.1821,-0.53428 -1.1821,-1.1821 0,-0.64674 0.53242,-1.1806 1.1821,-1.1806 0.64936,0 1.1821,0.53391 1.1821,1.1806"
           id="path4189" />
        <path
           style="fill:#ffffff;fill-rule:nonzero"
           inkscape:connector-curvature="0"
           d="m 322.5,-269.61088 c 0,0.52531 -0.4334,0.95871 -0.9632,0.95871 -0.52568,0 -0.95909,-0.4334 -0.95909,-0.95871 0,-0.52681 0.43341,-0.96059 0.95909,-0.96059 0.5298,0 0.9632,0.43378 0.9632,0.96059"
           id="path4191" />
        <path
           style="fill:#ffffff;fill-rule:nonzero"
           inkscape:connector-curvature="0"
           d="m 346.58,-295.74088 c 0,0.52681 -0.43489,0.96059 -0.96058,0.96059 -0.52531,0 -0.95871,-0.43378 -0.95871,-0.96059 0,-0.5268 0.4334,-0.95871 0.95871,-0.95871 0.52569,0 0.96058,0.43191 0.96058,0.95871"
           id="path4193" />
        <path
           style="fill:#ffffff;fill-rule:nonzero"
           inkscape:connector-curvature="0"
           d="m 348.91,-289.91088 c 0,0.64935 -0.49318,1.1821 -1.1425,1.1821 -0.64972,0 -1.2188,-0.53279 -1.2188,-1.1821 0,-0.64824 0.53278,-1.1792 1.1792,-1.1792 0.64936,0 1.1821,0.53091 1.1821,1.1792"
           id="path4195" />
        <path
           style="fill:#ffffff;fill-rule:nonzero"
           inkscape:connector-curvature="0"
           d="m 365.5,-282.97088 c 0,0.64786 -0.52979,1.1806 -1.1821,1.1806 -0.64972,0 -1.1821,-0.53278 -1.1821,-1.1806 0,-0.64637 0.53242,-1.1821 1.1821,-1.1821 0.65235,0 1.1821,0.53577 1.1821,1.1821"
           id="path4197" />
        <path
           style="fill:#ffffff;fill-rule:nonzero"
           inkscape:connector-curvature="0"
           d="m 348.65,-270.64088 c 0,0.52532 -0.43789,0.95909 -0.96357,0.95909 -0.52532,0 -0.96021,-0.43377 -0.96021,-0.95909 0,-0.5283 0.43489,-0.96021 0.96021,-0.96021 0.52568,0 0.96357,0.43191 0.96357,0.96021"
           id="path4199" />
        <path
           style="fill:#ffffff;fill-rule:nonzero"
           inkscape:connector-curvature="0"
           d="m 359.29,-280.68088 c 0,0.5268 -0.4334,0.95871 -0.95871,0.95871 -0.52531,0 -0.96021,-0.43191 -0.96021,-0.95871 0,-0.52681 0.4349,-0.96021 0.96021,-0.96021 0.52531,0 0.95871,0.4334 0.95871,0.96021"
           id="path4201" />
        <path
           style="fill:#ffffff;fill-rule:nonzero"
           inkscape:connector-curvature="0"
           d="m 357.33,-265.18088 c 0,0.52718 -0.4334,0.95909 -0.95871,0.95909 -0.5298,0 -0.9632,-0.43191 -0.9632,-0.95909 0,-0.52531 0.4334,-0.96021 0.9632,-0.96021 0.52531,0 0.95871,0.4349 0.95871,0.96021"
           id="path4203" />
        <path
           style="fill:#ffffff;fill-rule:nonzero"
           inkscape:connector-curvature="0"
           d="m 361.84,-290.94088 c 0,0.81001 -0.66878,1.4754 -1.4784,1.4754 -0.81001,0 -1.4773,-0.66542 -1.4773,-1.4754 0,-0.81001 0.66729,-1.4754 1.4773,-1.4754 0.80964,0 1.4784,0.66542 1.4784,1.4754"
           id="path4205" />
        <path
           style="fill:#ffffff;fill-rule:nonzero"
           inkscape:connector-curvature="0"
           d="m 360.36,-295.44088 -0.44087,4.059 -4.028,0.44348 4.0602,0.44088 0.44498,4.2088 0.44536,-4.2088 3.9884,-0.51523 -4.025,-0.36913 -0.44498,-4.059"
           id="path4207" />
        <path
           style="fill:#ffffff;fill-rule:nonzero"
           inkscape:connector-curvature="0"
           d="m 351.49,-265.26088 c 0,0.81002 -0.66692,1.4754 -1.4769,1.4754 -0.81001,0 -1.4784,-0.66542 -1.4784,-1.4754 0,-0.81001 0.66842,-1.4754 1.4784,-1.4754 0.81001,0 1.4769,0.66542 1.4769,1.4754"
           id="path4209" />
        <path
           style="fill:#ffffff;fill-rule:nonzero"
           inkscape:connector-curvature="0"
           d="m 350.02,-269.76088 -0.44499,4.059 -4.0254,0.44349 4.0616,0.44386 0.44535,4.2059 0.44499,-4.2059 3.9873,-0.51672 -4.028,-0.37063 -0.44087,-4.059"
           id="path4211" />
        <path
           style="fill:#ffffff;fill-rule:nonzero"
           inkscape:connector-curvature="0"
           d="m 241.26,-387.19588 c 0,0.81001 -0.66691,1.4754 -1.4769,1.4754 -0.81301,0 -1.4784,-0.66542 -1.4784,-1.4754 0,-0.81001 0.66542,-1.4754 1.4784,-1.4754 0.81001,0 1.4769,0.66542 1.4769,1.4754"
           id="path4213" />
        <path
           style="fill:#ffffff;fill-rule:nonzero"
           inkscape:connector-curvature="0"
           d="m 239.78,-391.69788 -0.44387,4.0587 -4.028,0.44386 4.0646,0.44087 0.44386,4.2089 0.442,-4.2089 3.9903,-0.51373 -4.028,-0.37101 -0.44087,-4.0587"
           id="path4215" />
        <path
           style="fill:#ffffff;fill-rule:nonzero"
           inkscape:connector-curvature="0"
           d="m 296.23,-422.91788 c 0,0.81001 -0.66841,1.4769 -1.4784,1.4769 -0.81001,0 -1.4739,-0.66692 -1.4739,-1.4769 0,-0.81001 0.66393,-1.4769 1.4739,-1.4769 0.81001,0 1.4784,0.66692 1.4784,1.4769"
           id="path4217" />
        <path
           style="fill:#ffffff;fill-rule:nonzero"
           inkscape:connector-curvature="0"
           d="m 294.75,-427.42388 -0.44088,4.0602 -4.028,0.44386 4.0646,0.44349 0.44087,4.2077 0.44499,-4.2077 3.9888,-0.51821 -4.028,-0.36914 -0.44237,-4.0602"
           id="path4219" />
        <path
           style="fill:#ffffff;fill-rule:nonzero"
           inkscape:connector-curvature="0"
           d="m 229.4,-241.63088 c 0,0.81001 -0.66692,1.4755 -1.4769,1.4755 -0.813,0 -1.4799,-0.6655 -1.4799,-1.4755 0,-0.80855 0.66692,-1.477 1.4799,-1.477 0.81001,0 1.4769,0.66841 1.4769,1.477"
           id="path4221" />
        <path
           style="fill:#ffffff;fill-rule:nonzero"
           inkscape:connector-curvature="0"
           d="m 227.958,-246.14088 -0.442,4.0602 -4.0269,0.44367 4.0635,0.44222 0.44349,4.2077 0.44237,-4.2077 3.9899,-0.51518 -4.0265,-0.37071 -0.44386,-4.0602"
           id="path4223" />
        <path
           style="fill:#ee293d;fill-rule:nonzero"
           inkscape:connector-curvature="0"
           d="m 423.62,-434.15988 c -17.97,53.312 -89.96,94.479 -150.56,133.78 -36.559,23.714 -72.856,51.011 -97.844,74.239 -6.5866,6.1255 1.3421,-2.2899 -1.1821,0.29629 34.872,-40.153 74.986,-64.069 97.153,-79.122 37.489,-25.469 58.812,-31.888 123.49,-91.463"
           id="path4225" />
        <path
           style="fill:#ee293d;fill-rule:nonzero"
           inkscape:connector-curvature="0"
           d="m 155.515,-302.08088 c -6.4536,3.1571 -12.235,6.2768 -17.14,9.3219 l 2.9846,1.0861 c 4.2896,-2.6419 9.4399,-5.3973 14.865,-7.8259"
           id="path4227" />
        <path
           style="fill:#ee293d;fill-rule:nonzero"
           inkscape:connector-curvature="0"
           d="m 189.587,-242.42088 c -5.8995,5.1489 -11.997,10.645 -18.113,16.406 l -0.27013,4.0706 c 5.5998,-5.768 12.479,-11.998 20.418,-18.608"
           id="path4229" />
        <path
           style="fill:#ffffff;fill-rule:nonzero"
           inkscape:connector-curvature="0"
           d="m 297.19,-265.70088 c 50.379,20.724 41.636,-31.647 14.782,-71.747 -15.22,-22.718 -33.99,-40.74 -47.59,-50.78 -15.88,-11.725 -17.43,-12.697 -17.43,-12.697 35.462,16.831 67.678,58.165 80.971,88.616 6.1401,14.059 22.88,69.692 -30.437,47.2"
           id="path4231" />
      </g>
      <rect
         style="fill:#767676;fill-opacity:1;fill-rule:nonzero;stroke:none"
         id="rect4543"
         width="165.0571"
         height="110.03806"
         x="1921.5709"
         y="-135.07123"
         rx="0"
         ry="0" />
      <path
         sodipodi:type="arc"
         style="fill:#000000;fill-opacity:0.50196078;fill-rule:nonzero;stroke:none"
         id="path4608"
         sodipodi:cx="288"
         sodipodi:cy="200"
         sodipodi:rx="2.9999993"
         sodipodi:ry="2.9999993"
         d="m 291,200 a 2.9999993,2.9999993 0 1 1 -6,0 2.9999993,2.9999993 0 1 1 6,0 z"
         transform="matrix(3.4386894,0,0,3.4386894,1013.7569,-767.79008)" />
      <path
         transform="matrix(3.4386894,0,0,3.4386894,951.8605,-733.40318)"
         d="m 291,200 a 2.9999993,2.9999993 0 1 1 -6,0 2.9999993,2.9999993 0 1 1 6,0 z"
         sodipodi:ry="2.9999993"
         sodipodi:rx="2.9999993"
         sodipodi:cy="200"
         sodipodi:cx="288"
         id="path4610"
         style="fill:#000000;fill-opacity:0.50196078;fill-rule:nonzero;stroke:none"
         sodipodi:type="arc" />
      <path
         sodipodi:type="arc"
         style="fill:#000000;fill-opacity:0.50196078;fill-rule:nonzero;stroke:none"
         id="path4612"
         sodipodi:cx="288"
         sodipodi:cy="200"
         sodipodi:rx="2.9999993"
         sodipodi:ry="2.9999993"
         d="m 291,200 a 2.9999993,2.9999993 0 1 1 -6,0 2.9999993,2.9999993 0 1 1 6,0 z"
         transform="matrix(3.4386894,0,0,3.4386894,1075.6533,-733.40318)" />
      <path
         sodipodi:type="arc"
         style="fill:#000000;fill-opacity:0.50196078;fill-rule:nonzero;stroke:none"
         id="path4614"
         sodipodi:cx="288"
         sodipodi:cy="200"
         sodipodi:rx="2.9999993"
         sodipodi:ry="2.9999993"
         d="m 291,200 a 2.9999993,2.9999993 0 1 1 -6,0 2.9999993,2.9999993 0 1 1 6,0 z"
         transform="matrix(3.4386894,0,0,3.4386894,951.8605,-802.17697)" />
      <path
         transform="matrix(3.4386894,0,0,3.4386894,1075.6533,-802.17697)"
         d="m 291,200 a 2.9999993,2.9999993 0 1 1 -6,0 2.9999993,2.9999993 0 1 1 6,0 z"
         sodipodi:ry="2.9999993"
         sodipodi:rx="2.9999993"
         sodipodi:cy="200"
         sodipodi:cx="288"
         id="path4616"
         style="fill:#000000;fill-opacity:0.50196078;fill-rule:nonzero;stroke:none"
         sodipodi:type="arc" />
      <rect
         ry="0"
         rx="0"
         y="1130.3665"
         x="1426.3997"
         height="110.03806"
         width="165.0571"
         id="rect4618"
         style="fill:#767676;fill-opacity:1;fill-rule:nonzero;stroke:none" />
      <path
         transform="matrix(3.4386894,0,0,3.4386894,518.5856,497.64759)"
         d="m 291,200 a 2.9999993,2.9999993 0 1 1 -6,0 2.9999993,2.9999993 0 1 1 6,0 z"
         sodipodi:ry="2.9999993"
         sodipodi:rx="2.9999993"
         sodipodi:cy="200"
         sodipodi:cx="288"
         id="path4620"
         style="fill:#000000;fill-opacity:0.50196078;fill-rule:nonzero;stroke:none"
         sodipodi:type="arc" />
      <path
         sodipodi:type="arc"
         style="fill:#000000;fill-opacity:0.50196078;fill-rule:nonzero;stroke:none"
         id="path4622"
         sodipodi:cx="288"
         sodipodi:cy="200"
         sodipodi:rx="2.9999993"
         sodipodi:ry="2.9999993"
         d="m 291,200 a 2.9999993,2.9999993 0 1 1 -6,0 2.9999993,2.9999993 0 1 1 6,0 z"
         transform="matrix(3.4386894,0,0,3.4386894,456.6892,532.03449)" />
      <path
         transform="matrix(3.4386894,0,0,3.4386894,580.482,532.03449)"
         d="m 291,200 a 2.9999993,2.9999993 0 1 1 -6,0 2.9999993,2.9999993 0 1 1 6,0 z"
         sodipodi:ry="2.9999993"
         sodipodi:rx="2.9999993"
         sodipodi:cy="200"
         sodipodi:cx="288"
         id="path4624"
         style="fill:#000000;fill-opacity:0.50196078;fill-rule:nonzero;stroke:none"
         sodipodi:type="arc" />
      <path
         transform="matrix(3.4386894,0,0,3.4386894,456.6892,463.2607)"
         d="m 291,200 a 2.9999993,2.9999993 0 1 1 -6,0 2.9999993,2.9999993 0 1 1 6,0 z"
         sodipodi:ry="2.9999993"
         sodipodi:rx="2.9999993"
         sodipodi:cy="200"
         sodipodi:cx="288"
         id="path4626"
         style="fill:#000000;fill-opacity:0.50196078;fill-rule:nonzero;stroke:none"
         sodipodi:type="arc" />
      <path
         sodipodi:type="arc"
         style="fill:#000000;fill-opacity:0.50196078;fill-rule:nonzero;stroke:none"
         id="path4628"
         sodipodi:cx="288"
         sodipodi:cy="200"
         sodipodi:rx="2.9999993"
         sodipodi:ry="2.9999993"
         d="m 291,200 a 2.9999993,2.9999993 0 1 1 -6,0 2.9999993,2.9999993 0 1 1 6,0 z"
         transform="matrix(3.4386894,0,0,3.4386894,580.482,463.2607)" />
      <rect
         ry="0"
         rx="0"
         y="112.51441"
         x="1467.6639"
         height="151.30234"
         width="82.528709"
         id="rect4630"
         style="fill:#767676;fill-opacity:1;fill-rule:nonzero;stroke:none" />
      <path
         sodipodi:type="arc"
         style="fill:#000000;fill-opacity:0.50196078;fill-rule:nonzero;stroke:none"
         id="path4634"
         sodipodi:cx="288"
         sodipodi:cy="200"
         sodipodi:rx="2.9999993"
         sodipodi:ry="2.9999993"
         d="m 291,200 a 2.9999993,2.9999993 0 1 1 -6,0 2.9999993,2.9999993 0 1 1 6,0 z"
         transform="matrix(3.4386894,0,0,3.4386894,497.95351,-444.55327)" />
      <path
         transform="matrix(3.4386894,0,0,3.4386894,539.21778,-444.55327)"
         d="m 291,200 a 2.9999993,2.9999993 0 1 1 -6,0 2.9999993,2.9999993 0 1 1 6,0 z"
         sodipodi:ry="2.9999993"
         sodipodi:rx="2.9999993"
         sodipodi:cy="200"
         sodipodi:cx="288"
         id="path4636"
         style="fill:#000000;fill-opacity:0.50196078;fill-rule:nonzero;stroke:none"
         sodipodi:type="arc" />
      <path
         sodipodi:type="arc"
         style="fill:#000000;fill-opacity:0.50196078;fill-rule:nonzero;stroke:none"
         id="path4640"
         sodipodi:cx="288"
         sodipodi:cy="200"
         sodipodi:rx="2.9999993"
         sodipodi:ry="2.9999993"
         d="m 291,200 a 2.9999993,2.9999993 0 1 1 -6,0 2.9999993,2.9999993 0 1 1 6,0 z"
         transform="matrix(3.4386894,0,0,3.4386894,518.58564,-489.25623)" />
      <path
         sodipodi:type="arc"
         style="fill:#7f7f7f;fill-opacity:1;fill-rule:nonzero;stroke:#e9e9e9;stroke-width:24;stroke-miterlimit:4;stroke-opacity:1;stroke-dasharray:none"
         id="path4642"
         sodipodi:cx="32"
         sodipodi:cy="808"
         sodipodi:rx="24.000002"
         sodipodi:ry="24.000002"
         d="m 56.000002,808 a 24.000002,24.000002 0 1 1 -48.0000039,0 24.000002,24.000002 0 1 1 48.0000039,0 z"
         transform="matrix(3.4386894,0,0,3.4386894,215.98098,-712.77106)" />
      <path
         transform="matrix(3.4386894,0,0,3.4386894,105.94291,-300.12833)"
         d="m 56.000002,808 a 24.000002,24.000002 0 1 1 -48.0000039,0 24.000002,24.000002 0 1 1 48.0000039,0 z"
         sodipodi:ry="24.000002"
         sodipodi:rx="24.000002"
         sodipodi:cy="808"
         sodipodi:cx="32"
         id="path4644"
         style="fill:#7f7f7f;fill-opacity:1;fill-rule:nonzero;stroke:#e9e9e9;stroke-width:24;stroke-miterlimit:4;stroke-opacity:1;stroke-dasharray:none"
         sodipodi:type="arc" />
      <path
         transform="matrix(3.4386894,0,0,3.4386894,546.09516,-437.6759)"
         d="m 56.000002,808 a 24.000002,24.000002 0 1 1 -48.0000039,0 24.000002,24.000002 0 1 1 48.0000039,0 z"
         sodipodi:ry="24.000002"
         sodipodi:rx="24.000002"
         sodipodi:cy="808"
         sodipodi:cx="32"
         id="path4646"
         style="fill:#7f7f7f;fill-opacity:1;fill-rule:nonzero;stroke:#e9e9e9;stroke-width:24;stroke-miterlimit:4;stroke-opacity:1;stroke-dasharray:none"
         sodipodi:type="arc" />
      <path
         sodipodi:type="arc"
         style="fill:#7f7f7f;fill-opacity:1;fill-rule:nonzero;stroke:#e9e9e9;stroke-width:24;stroke-miterlimit:4;stroke-opacity:1;stroke-dasharray:none"
         id="path4648"
         sodipodi:cx="32"
         sodipodi:cy="808"
         sodipodi:rx="24.000002"
         sodipodi:ry="24.000002"
         d="m 56.000002,808 a 24.000002,24.000002 0 1 1 -48.0000039,0 24.000002,24.000002 0 1 1 48.0000039,0 z"
         transform="matrix(2.2924596,0,0,2.2924596,775.34111,185.87309)" />
      <path
         sodipodi:type="arc"
         style="fill:#7f7f7f;fill-opacity:1;fill-rule:nonzero;stroke:#e9e9e9;stroke-width:24;stroke-miterlimit:4;stroke-opacity:1;stroke-dasharray:none"
         id="path4650"
         sodipodi:cx="32"
         sodipodi:cy="808"
         sodipodi:rx="24.000002"
         sodipodi:ry="24.000002"
         d="m 56.000002,808 a 24.000002,24.000002 0 1 1 -48.0000039,0 24.000002,24.000002 0 1 1 48.0000039,0 z"
         transform="matrix(3.4386894,0,0,-3.4386894,546.09516,4183.9226)" />
      <path
         transform="matrix(2.2924596,0,0,-2.2924596,775.34111,3560.3736)"
         d="m 56.000002,808 a 24.000002,24.000002 0 1 1 -48.0000039,0 24.000002,24.000002 0 1 1 48.0000039,0 z"
         sodipodi:ry="24.000002"
         sodipodi:rx="24.000002"
         sodipodi:cy="808"
         sodipodi:cx="32"
         id="path4652"
         style="fill:#7f7f7f;fill-opacity:1;fill-rule:nonzero;stroke:#e9e9e9;stroke-width:24;stroke-miterlimit:4;stroke-opacity:1;stroke-dasharray:none"
         sodipodi:type="arc" />
      <path
         transform="matrix(3.4386894,0,0,3.4386894,160.96194,-1070.3948)"
         d="m 56.000002,808 a 24.000002,24.000002 0 1 1 -48.0000039,0 24.000002,24.000002 0 1 1 48.0000039,0 z"
         sodipodi:ry="24.000002"
         sodipodi:rx="24.000002"
         sodipodi:cy="808"
         sodipodi:cx="32"
         id="path4654"
         style="fill:#7f7f7f;fill-opacity:1;fill-rule:nonzero;stroke:#e9e9e9;stroke-width:24;stroke-miterlimit:4;stroke-opacity:1;stroke-dasharray:none"
         sodipodi:type="arc" />
      <path
         sodipodi:type="arc"
         style="fill:#7f7f7f;fill-opacity:1;fill-rule:nonzero;stroke:#e9e9e9;stroke-width:24;stroke-miterlimit:4;stroke-opacity:1;stroke-dasharray:none"
         id="path4656"
         sodipodi:cx="32"
         sodipodi:cy="808"
         sodipodi:rx="24.000002"
         sodipodi:ry="24.000002"
         d="m 56.000002,808 a 24.000002,24.000002 0 1 1 -48.0000039,0 24.000002,24.000002 0 1 1 48.0000039,0 z"
         transform="matrix(3.4386894,0,0,3.4386894,243.4905,-1345.4899)" />
      <path
         transform="matrix(3.4386894,0,0,3.4386894,50.923881,-1593.0755)"
         d="m 56.000002,808 a 24.000002,24.000002 0 1 1 -48.0000039,0 24.000002,24.000002 0 1 1 48.0000039,0 z"
         sodipodi:ry="24.000002"
         sodipodi:rx="24.000002"
         sodipodi:cy="808"
         sodipodi:cx="32"
         id="path4658"
         style="fill:#7f7f7f;fill-opacity:1;fill-rule:nonzero;stroke:#e9e9e9;stroke-width:24;stroke-miterlimit:4;stroke-opacity:1;stroke-dasharray:none"
         sodipodi:type="arc" />
      <path
         style="fill:none;stroke:#b27222;stroke-width:3.99999999000000006;stroke-linecap:butt;stroke-linejoin:miter;stroke-opacity:1;stroke-miterlimit:4;stroke-dasharray:none"
         d="m 144,256 720,0"
         id="path4660"
         inkscape:connector-curvature="0"
         transform="matrix(3.4386894,0,0,3.4386894,23.414373,-767.79008)" />
      <path
         style="fill:none;stroke:#b27222;stroke-width:27.50951576;stroke-linecap:butt;stroke-linejoin:miter;stroke-miterlimit:4;stroke-opacity:1;stroke-dasharray:55.01903023, 27.5095151, 13.75475757, 27.5095151;stroke-dashoffset:0"
         d="m 23.414373,992.81889 2971.027627,0"
         id="path4664"
         inkscape:connector-curvature="0"
         sodipodi:nodetypes="cc" />
      <path
         inkscape:connector-curvature="0"
         id="path4666"
         d="m 23.414373,992.81889 2971.027627,0"
         style="fill:none;stroke:#b27222;stroke-width:13.75475788;stroke-linecap:butt;stroke-linejoin:miter;stroke-miterlimit:4;stroke-opacity:1;stroke-dasharray:none"
         sodipodi:nodetypes="cc" />
      <path
         sodipodi:nodetypes="cc"
         inkscape:connector-curvature="0"
         id="path4668"
         d="m 573.60468,1873.1234 2971.02762,0"
         style="fill:none;stroke:#b27222;stroke-width:27.50951576;stroke-linecap:butt;stroke-linejoin:miter;stroke-miterlimit:4;stroke-opacity:1;stroke-dasharray:55.01903023, 27.5095151, 13.75475757, 27.5095151;stroke-dashoffset:0" />
      <path
         sodipodi:nodetypes="cc"
         style="fill:none;stroke:#b27222;stroke-width:13.75475788;stroke-linecap:butt;stroke-linejoin:miter;stroke-miterlimit:4;stroke-opacity:1;stroke-dasharray:none"
         d="m 573.60468,1873.1234 2971.02762,0"
         id="path4670"
         inkscape:connector-curvature="0" />
    </g>
  </g>
</svg>
