<?xml version="1.0" encoding="UTF-8" standalone="no"?>
<!-- Created with Inkscape (http://www.inkscape.org/) -->

<svg
   xmlns:dc="http://purl.org/dc/elements/1.1/"
   xmlns:cc="http://creativecommons.org/ns#"
   xmlns:rdf="http://www.w3.org/1999/02/22-rdf-syntax-ns#"
   xmlns:svg="http://www.w3.org/2000/svg"
   xmlns="http://www.w3.org/2000/svg"
   xmlns:xlink="http://www.w3.org/1999/xlink"
   xmlns:sodipodi="http://sodipodi.sourceforge.net/DTD/sodipodi-0.dtd"
   xmlns:inkscape="http://www.inkscape.org/namespaces/inkscape"
   id="svg3090"
   version="1.1"
   inkscape:version="0.48.4 r9939"
   width="4096"
   height="4096"
   sodipodi:docname="dragon-texture.svg"
   inkscape:export-xdpi="90"
   inkscape:export-ydpi="90">
  <metadata
     id="metadata3096">
    <rdf:RDF>
      <cc:Work
         rdf:about="">
        <dc:format>image/svg+xml</dc:format>
        <dc:type
           rdf:resource="http://purl.org/dc/dcmitype/StillImage" />
        <dc:title />
      </cc:Work>
    </rdf:RDF>
  </metadata>
  <defs
     id="defs3094" />
  <sodipodi:namedview
     pagecolor="#ffffff"
     bordercolor="#666666"
     borderopacity="1"
     objecttolerance="10"
     gridtolerance="10"
     guidetolerance="10"
     inkscape:pageopacity="0"
     inkscape:pageshadow="2"
     inkscape:window-width="1680"
     inkscape:window-height="992"
     id="namedview3092"
     showgrid="true"
     inkscape:zoom="0.094726563"
     inkscape:cx="2764.9986"
     inkscape:cy="2044.7753"
     inkscape:window-x="0"
     inkscape:window-y="29"
     inkscape:window-maximized="1"
     inkscape:current-layer="svg3090"
     inkscape:snap-bbox="true"
     inkscape:snap-global="true">
    <inkscape:grid
       type="xygrid"
       id="grid3100"
       empspacing="4"
       visible="true"
       enabled="true"
       snapvisiblegridlinesonly="true" />
  </sodipodi:namedview>
  <g
     id="g3933"
     transform="matrix(2.2724942,0,0,2.2724942,765.95494,2115.055)">
    <path
       id="path3935"
       d="m 77.3,15.1 h -28 l -1,0.8 V 40.8 H 56 v -9.4 l 0.7,-0.7 h 20.6 c 5.2,0 7.6,-1.4 7.6,-5 V 20 c 0,-3.5 -2.4,-4.9 -7.6,-4.9 m 0,9.2 c 0,1.7 -1.1,2 -3.6,2 H 56.8 L 56,25.6 v -5.3 l 0.7,-0.7 h 17 c 2.4,0 3.6,0.3 3.6,2 v 2.7 z"
       inkscape:connector-curvature="0"
       style="fill:#005288" />
    <polyline
       id="polyline3937"
       points="99.1,19.8 105.8,29.6 105.4,30.5 90.6,30.5 86.8,35.2 108.8,35.2 110.4,36.1 113.8,40.8    122.7,40.8 103.2,14.8  "
       style="fill:#005288" />
    <polyline
       id="polyline3939"
       points="187.4,35.8 187.4,28.8 188.2,28.1 203.1,28.1 203.1,23.7 179.5,23.7 179.5,40.8 214.3,40.8    214.3,36.4 188.3,36.4  "
       style="fill:#005288" />
    <rect
       id="rect3941"
       height="4.8000002"
       width="35.099998"
       y="15.1"
       x="179.5"
       style="fill:#005288" />
    <path
       id="path3943"
       d="m 140.4,19.7 h 28.3 c -0.4,-3.6 -2.7,-4.6 -8.3,-4.6 h -20.3 c -6.4,0 -8.4,1.2 -8.4,6.1 v 13.6 c 0,4.8 2,6.1 8.4,6.1 h 20.3 c 5.7,0 7.9,-1.1 8.1,-4.8 h -28.1 l -0.8,-0.8 v -15"
       inkscape:connector-curvature="0"
       style="fill:#005288" />
    <path
       id="path3945"
       d="M 29.3,25.1 H 8.8 L 8.2,24.4 V 20 l 0.6,-0.5 h 27.7 l 0.4,-0.9 C 36,16.2 33.5,15 29,15 H 9.7 C 3.3,15 1.3,16.2 1.3,21.1 V 24 c 0,4.8 2,6.1 8.4,6.1 h 20.5 l 0.6,0.6 v 4.6 L 30.3,36 H 6.8 v 0 H 0.7 c 0,0 -0.7,0.4 -0.7,0.5 0.5,3.4 2.8,4.3 8.3,4.3 h 21 c 6.4,0 8.5,-1.2 8.5,-6.1 v -3.5 c 0,-4.8 -2.1,-6.1 -8.5,-6.1"
       inkscape:connector-curvature="0"
       style="fill:#005288" />
    <path
       id="path3947"
       d="m 236.7,15 h -11.6 l -0.6,1.2 12.8,9.4 c 2.4,-1.4 5.1,-2.8 7.9,-4.2"
       inkscape:connector-curvature="0"
       style="fill:#005288" />
    <path
       id="path3949"
       d="m 247.1,32.6 11.3,8.2 H 270 l 0.5,-1.1 -16.8,-12.3 c -2.2,1.7 -4.5,3.4 -6.6,5.2"
       inkscape:connector-curvature="0"
       style="fill:#005288" />
    <path
       id="path3951"
       d="m 235,40.8 h -10.5 l -0.9,-1.4 c 7.1,-6.9 38.9,-36.3 108,-39.4 0,0 -57.9,2 -96.6,40.8"
       inkscape:connector-curvature="0"
       style="fill:#a7a9ac" />
  </g>
  <path
     inkscape:connector-curvature="0"
     id="path3861"
     d="m 1209.3558,3917.1899 c -10.4778,-0.9443 -24.4567,-4.437 -30.9734,-7.7393 -3.0531,-1.5471 -9.9776,-5.9312 -9.9776,-6.3172 0,-0.103 1.8495,0.6495 4.1104,1.6745 11.6956,5.3031 24.0312,5.9895 31.0113,1.7256 2.0394,-1.2459 3.165,-1.3289 18.8757,-1.389 14.8329,-0.057 17.4462,-0.2263 23.2988,-1.5112 13.4393,-2.9503 21.8823,-7.0573 28.718,-13.9694 6.3462,-6.4171 9.7075,-14.6792 10.1184,-24.8716 0.4593,-11.3864 -2.6743,-20.5011 -8.6807,-25.2487 -13.6564,-10.7949 -41.9907,-7.5947 -85.1781,9.6199 -11.3536,4.5256 -30.6592,13.1381 -41.1494,18.3575 -21.4983,10.6961 -40.4111,17.2565 -58.573,20.3177 -8.4066,1.4172 -25.6667,1.9343 -34.2422,1.0262 -24.0965,-2.5516 -46.4487,-12.084 -69.06857,-29.4555 -7.7382,-5.9426 -27.29956,-23.3923 -26.39153,-23.5425 0.43844,-0.073 6.98785,-0.577 14.5541,-1.121 7.56636,-0.5441 15.20553,-1.1456 16.97577,-1.3365 l 3.21877,-0.347 2.85548,4.3475 c 3.68568,5.6116 14.31768,16.2244 20.48798,20.4509 19.6536,13.462 45.6545,19.1035 73.1979,15.8817 19.2645,-2.2535 34.194,-6.8873 57.625,-17.8854 30.9515,-14.5284 64.7592,-25.9065 85.6221,-28.8163 9.0596,-1.2636 22.3841,-1.2663 28.2539,0 9.8506,2.1152 18.7033,8.2179 22.6419,15.6077 3.9887,7.4833 5.4193,16.8024 3.8981,25.3913 -4.4373,25.0521 -23.8616,42.8871 -52.1967,47.9259 -5.5644,0.9895 -23.3424,1.7425 -29.0324,1.2298 z M 889.20702,3801.6947 c -12.68255,-15.8493 -23.4147,-37.674 -27.38812,-55.6956 -1.7352,-7.8704 -2.04708,-22.639 -0.61281,-29.0135 6.06348,-26.948 25.84131,-45.9535 62.77354,-60.3218 11.39812,-4.4347 39.67124,-12.2929 39.67124,-11.0263 0,1.2202 -2.43244,2.1514 -10.04237,3.8449 -28.48012,6.3377 -50.52459,16.8651 -65.70616,31.3789 -18.97537,18.1405 -24.91609,41.3619 -17.70912,69.2244 3.01664,11.6625 5.38511,17.3057 15.91672,37.9239 1.40251,2.7454 6.63342,17.0528 6.3417,17.3448 -0.0961,0.095 -1.55673,-1.5503 -3.24462,-3.6597 z m 454.67988,-2.6475 c 0.1641,-0.4398 1.3804,-3.8231 2.7025,-7.5184 1.3223,-3.6952 4.7839,-11.4695 7.6924,-17.2761 8.947,-17.8615 12.828,-29.6557 14.4057,-43.7779 3.4283,-30.6884 -12.3825,-56.1042 -45.1464,-72.5727 -9.2374,-4.6431 -14.888,-6.9158 -24.6054,-9.8963 -7.6306,-2.3407 -20.917,-5.5635 -22.9355,-5.5635 -0.6359,0 -1.8541,-0.7432 -2.7073,-1.6518 l -1.5512,-1.6515 1.9195,0.4628 c 36.4176,8.7847 56.055,16.82 73.9034,30.2404 8.5468,6.4266 16.6586,15.3972 20.9319,23.1487 2.3226,4.213 5.1726,11.835 6.3405,16.9562 1.3935,6.1111 1.5743,21.3963 0.3276,27.715 -3.626,18.3769 -12.1538,36.6148 -25.861,55.3064 -4.7001,6.4094 -6.1445,8.0304 -5.4167,6.0787 z m 4.1826,-46.4244 c 1.1823,-32.7384 -13.0666,-53.5369 -41.1358,-60.0447 -4.0555,-0.9404 -7.7109,-1.1868 -17.596,-1.1868 -11.4459,0 -12.725,0.1137 -15.476,1.3857 -5.6202,2.5972 -6.9986,8.4161 -4.0643,17.1569 1.4867,4.429 5.7595,12.4014 8.9234,16.6495 2.5348,3.4035 2.6491,3.7502 0.9364,2.8457 -0.8343,-0.4407 -3.2446,-1.9513 -5.3561,-3.357 -20.5576,-13.6855 -30.8221,-16.8139 -35.5387,-10.8307 -1.8199,2.3087 -1.3966,5.4734 1.4831,11.0858 l 2.1778,4.2451 -3.8967,-3.1528 c -8.4451,-6.833 -18.3528,-10.1537 -24.4386,-8.1913 -2.8324,0.9133 -9.3188,5.3314 -13.0786,8.9081 -1.8045,1.7167 -2.5313,2.105 -2.5313,1.353 0,-2.1794 -3.357,-7.6664 -6.9337,-11.3328 -5.6269,-5.7685 -15.5373,-11.9463 -25.6729,-16.0038 -1.2211,-0.4889 -0.2904,-0.6453 4.1591,-0.6985 9.9593,-0.1198 20.5884,-3.6832 30.709,-10.2975 11.6273,-7.5994 17.8941,-16.0837 17.8941,-24.2267 0,-2.2428 0.2821,-4.0161 0.6397,-4.0205 0.3519,-0.016 3.2314,-1.5741 6.3984,-3.4877 9.3166,-5.6294 12.8605,-7.3398 17.4362,-8.4159 9.9787,-2.3468 24.0016,1.2952 37.2926,9.6854 1.4629,0.9233 2.7863,1.5519 2.941,1.3971 0.1551,-0.155 -1.2621,-1.6926 -3.1494,-3.4174 -4.1155,-3.7614 -9.8312,-6.9171 -16.7686,-9.258 l -5.1189,-1.7274 2.439,-0.4606 c 5.2659,-0.9954 20.7246,2.1058 31.778,6.3747 26.1266,10.0902 46.7786,26.9881 56.6452,46.3486 8.9869,17.6343 8.9205,36.8747 -0.2019,58.3539 l -1.2028,2.8326 0.3073,-8.5122 z m -459.93495,3.2341 c -1.91136,-5.0773 -3.58787,-11.8088 -4.50687,-18.0935 -1.02972,-7.04 -0.41448,-19.9509 1.2445,-26.1283 1.4269,-5.3124 5.39262,-13.9485 8.49096,-18.4902 11.0263,-16.1628 31.65484,-28.7191 59.59001,-36.2718 9.60985,-2.598 16.80014,-3.5822 26.3741,-3.6099 14.77048,-0.043 22.32215,2.0224 39.15435,10.7072 5.6984,2.9402 10.8092,5.3458 11.3574,5.3458 1.1516,0 1.3272,1 0.2885,1.642 -0.9514,0.5877 0.5581,1.5345 2.4678,1.5476 1.7145,0.015 1.7352,0.1413 0.4208,2.6832 -1.424,2.7539 -1.3585,6.9823 0.1476,9.562 3.7201,6.3696 13.7564,8.911 32.5435,8.2398 4.9268,-0.1758 8.9962,-0.3198 9.0432,-0.3198 0.046,0 0.2957,0.9821 0.5531,2.1823 l 0.4683,2.1824 -10.4711,-0.4206 c -17.8557,-0.7177 -23.8039,-2.0379 -29.5702,-6.5638 -4.1469,-3.2547 -6.1714,-6.7345 -6.1847,-10.6318 -0.016,-4.6484 -0.8629,-5.4943 -8.9485,-8.9384 -4.0471,-1.7239 -10.3818,-4.5582 -14.0769,-6.2983 -3.6952,-1.7405 -9.31,-3.7731 -12.47714,-4.5174 -7.84195,-1.842 -20.06029,-1.8382 -30.99117,0.015 -4.376,0.7398 -8.02317,1.4122 -8.10497,1.494 -0.0824,0.081 5.80203,0.1646 13.07528,0.1848 16.26196,0.044 17.08366,0.2272 37.3525,8.309 8.3473,3.3282 15.564,6.0515 16.0371,6.0515 0.4733,0 1.3601,0.3653 1.9712,0.8123 1.0427,0.7623 1.046,0.9681 0.055,3.3411 -1.4438,3.4556 -0.9564,7.9571 1.1626,10.7353 1.869,2.4504 7.4752,5.6206 12.6333,7.1435 6.5479,1.9333 14.9884,2.9627 27.5363,3.3585 l 12.4999,0.3938 3.1692,5.3698 c 4.2276,7.1639 10.1423,13.076 15.8367,15.8306 l 4.4326,2.1438 -3.7438,1.4061 c -9.885,3.7134 -22.953,4.2527 -36.7706,1.5183 -6.7853,-1.3425 -10.5566,-1.7078 -18.1615,-1.7595 -8.7261,-0.058 -9.8358,0.063 -12.2194,1.3378 -1.5407,0.8245 -3.0421,2.2714 -3.6418,3.5093 -0.6786,1.4011 -1.1161,1.7883 -1.3068,1.1566 -3.686,-12.2041 -9.0774,-16.9034 -20.0969,-17.517 -7.02782,-0.3914 -17.65083,3.7588 -32.43482,12.671 -3.84656,2.3188 -7.07977,4.2161 -7.18458,4.2161 -1.1357,0 5.40337,-10.5473 12.36241,-19.94 6.338,-8.5548 7.63559,-11.0886 6.99218,-13.6522 -1.7716,-7.0587 -28.89078,-4.6114 -52.66738,4.7527 -28.41234,11.1897 -43.31527,29.2103 -42.2386,51.0745 0.16024,3.2553 0.20836,5.9187 0.10637,5.9187 -0.1013,0 -0.80798,-1.6558 -1.5696,-3.6791 z m 282.40145,-6.9588 c 3.1113,-3.2654 5.547,-8.2114 5.547,-11.2635 0,-8.0505 -7.5346,-14.0084 -29.8251,-23.583 -13.6364,-5.8574 -20.7097,-9.7777 -25.464,-14.1139 -3.4029,-3.1032 -7.0257,-8.5269 -7.7861,-11.6561 -0.4188,-1.7238 -0.1413,-1.5898 4.7917,2.3106 7.9101,6.2547 6.9376,5.8651 41.3274,16.566 11.5782,3.6029 17.8768,6.8074 23.3613,11.8849 6.2462,5.7831 7.9917,8.9203 7.9917,14.3637 0,3.7113 -0.2514,4.6234 -1.9403,7.0386 -3.3042,4.7246 -8.5307,7.6421 -18.8106,10.4998 -1.4057,0.3908 -1.3282,0.1939 0.807,-2.0471 z m -55.5592,-25.0008 c -3.5105,-0.4662 -10.186,-2.8699 -14.3876,-5.1808 -2.496,-1.3727 -6.3494,-4.4675 -9.6682,-7.7653 -8.7369,-8.6818 -12.6819,-18.134 -11.9022,-28.5179 1.0088,-13.4353 10.7606,-26.947 28.2798,-39.1822 2.8153,-1.9663 5.4068,-3.8514 5.7588,-4.1889 1.4073,-1.3511 -4.7241,0.4122 -9.8964,2.8455 -6.9669,3.2778 -10.6861,3.9609 -17.1529,3.1502 -4.8504,-0.6084 -15.1156,-3.5332 -19.4918,-5.554 l -2.0881,-0.964 1.9195,0.4074 c 5.4437,1.1562 9.5639,1.5987 15.4215,1.6571 7.6336,0.075 12.4465,-1.112 17.1909,-4.2432 6.5019,-4.291 10.5974,-6.0492 17.7762,-7.6321 1.2339,-0.2722 1.7597,-0.7872 1.7597,-1.724 0,-0.9114 -0.2983,-1.2215 -0.9387,-0.9758 -1.7977,0.6898 -7.7807,-1.6715 -20.1767,-7.963 -12.0951,-6.139 -20.5536,-10.7572 -19.7757,-10.7967 0.2089,-0.015 2.0805,0.571 4.1591,1.2926 15.6495,5.4321 30.5138,5.8082 36.9232,0.9346 5.6819,-4.3208 7.735,-4.6206 9.1096,-1.3305 1.1714,2.803 2.0162,3.3027 3.4272,2.0261 2.7351,-2.4755 5.4267,-0.7271 9.0559,5.8826 2.45,4.462 4.6074,5.7335 6.1494,3.6244 1.7444,-2.3855 0.7948,-6.5935 -3.6401,-16.1287 -2.8718,-6.1745 -2.2682,-6.1849 3.5817,-0.061 7.433,7.779 11.5776,15.4912 13.7241,25.5357 0.693,3.2418 1.5833,6.2842 1.9791,6.7609 0.4476,0.5395 0.5602,1.9261 0.2981,3.6736 -0.3963,2.6429 -0.1548,3.2644 4.1291,10.6249 4.3146,7.4128 4.4946,7.8792 3.4742,9.007 -0.8993,0.9932 -0.9569,1.5315 -0.3508,3.2703 0.399,1.1444 1.3314,2.7261 2.0719,3.5146 2.8702,3.0548 2.9714,13.212 0.1595,16.0237 -0.8105,0.8105 -2.0171,1.4737 -2.6817,1.4737 -2.0849,0 -6.3954,-2.7741 -8.4515,-5.4388 -1.086,-1.4078 -3.8651,-4.4821 -6.1756,-6.832 -3.4159,-3.4738 -4.7787,-4.4107 -7.2918,-5.0137 -3.3893,-0.8129 -5.7245,-0.4064 -5.7245,0.9961 0,0.5037 2.8824,2.3425 6.5283,4.165 3.5907,1.7947 7.3331,3.8362 8.3167,4.5365 1.8693,1.331 5.9659,6.8246 5.4635,7.3269 -0.6024,0.6023 -2.2457,-0.5079 -2.9103,-1.9671 -0.9823,-2.1557 -5.3545,-4.5148 -11.8611,-6.4005 -7.8081,-2.2628 -11.2056,-4.1511 -15.0639,-8.3729 -4.3666,-4.7774 -5.83,-7.7408 -5.83,-11.8053 0,-3.8664 -0.6807,-3.7202 -2.1963,0.4712 -2.4981,6.9074 -2.2669,6.5589 -3.8721,5.8277 -2.115,-0.9637 -3.0411,-3.2867 -1.9074,-4.7832 0.4933,-0.6512 0.9058,-1.3715 0.9172,-1.601 0.029,-0.6148 -3.8702,-1.8658 -4.5353,-1.4548 -1.0938,0.6758 -5.8077,8.0753 -7.6423,11.9961 -8.5177,18.203 -4.5031,39.7024 9.8306,52.6463 1.8299,1.6525 4.7052,3.6469 6.3895,4.4321 2.2153,1.0329 2.776,1.5375 2.0271,1.8249 -1.0835,0.4157 -6.9182,0.3875 -10.2084,-0.049 z m 26.7199,-69.0797 c -0.5964,-0.2411 -0.5474,-0.5676 0.1967,-1.3119 0.545,-0.5448 0.8271,-1.4176 0.6267,-1.9395 -0.2689,-0.7012 -0.068,-0.8303 0.763,-0.4956 0.6201,0.2486 1.559,0.6133 2.0867,0.81 0.5281,0.1965 -0.3356,-0.6957 -1.9193,-1.983 -3.173,-2.5792 -6.9303,-3.9803 -7.9471,-2.9636 -0.4094,0.4095 -0.1942,0.635 0.6205,0.6497 0.6864,0.015 1.9677,0.4342 2.8475,0.9371 1.5455,0.8834 1.5521,0.9151 0.1976,0.9372 -1.8668,0.031 -2.3446,0.9601 -1.4021,2.7287 0.7283,1.367 0.7017,1.3982 -0.4502,0.5278 -0.6735,-0.5089 -2.3213,-1.9487 -3.6616,-3.1992 -1.765,-1.6471 -2.3116,-1.9214 -1.9824,-0.9945 0.9399,2.6446 3.8258,4.8711 7.9346,6.1207 1.7922,0.5453 3.322,0.6738 2.0894,0.1761 z m 16.9588,40.7118 c -2.604,-0.4385 -9.4447,-2.4297 -9.4473,-2.7498 -4e-4,-0.059 3.9178,-0.015 8.7073,0.103 19.0536,0.4613 32.7839,-3.6447 41.609,-12.443 3.949,-3.937 7.2774,-9.7042 8.2421,-14.2819 0.255,-1.2095 1.0575,-2.6805 1.7832,-3.268 1.3192,-1.0682 1.3192,-1.0683 -0.4209,-2.2088 l -1.7404,-1.1402 6.2625,-2.072 c 3.4444,-1.1398 10.1494,-3.5127 14.9004,-5.2736 9.0386,-3.3498 12.5592,-4.4793 10.8776,-3.4897 -13.6055,8.007 -23.4077,12.2307 -26.2742,11.3209 -1.651,-0.524 -1.568,0.1688 0.2,1.6694 1.3544,1.1495 1.3735,1.2735 0.3199,2.0925 -0.6811,0.5299 -1.1197,1.734 -1.1197,3.0742 0,5.8859 -9.2234,16.8639 -18.563,22.0946 -10.7135,6.0002 -24.0287,8.477 -35.3365,6.5731 z m -39.3776,-6.5901 c -3.7969,-2.3642 -5.84,-5.0318 -7.3983,-9.6592 -1.0326,-3.0664 -1.3985,-6.1246 -0.7329,-6.1246 0.1808,0 1.8879,1.2695 3.7934,2.8214 1.9051,1.5521 4.017,2.9971 4.6929,3.2117 0.8922,0.2833 1.6052,1.7647 2.6053,5.4136 2.0659,7.5386 2.1,7.4884 -2.9604,4.3371 z m -4.1069,-15.456 c -2.4153,-1.6414 -3.4492,-3.5375 -3.1434,-5.7667 0.2285,-1.6661 3.327,-8.6394 3.8365,-8.6342 0.2158,0 0.8568,0.8208 1.4244,1.8189 0.5866,1.0307 2.5058,2.549 4.4448,3.5149 3.2661,1.6277 3.3246,1.7007 1.3674,1.7007 -1.8669,0 -2.0512,0.1815 -2.1133,2.0796 -0.038,1.1439 -0.1323,2.5115 -0.2103,3.0394 -0.078,0.5278 -0.1918,1.6077 -0.2519,2.3994 -0.1491,1.957 -2.342,1.895 -5.3542,-0.1522 z"
     style="fill:#00357d;fill-opacity:1"
     sodipodi:nodetypes="ccscscccccsccsscsccsssssccssccscscssssccsccssscsccccscsscccscsscscccsscscsccscscccccccsscccccccsscsscccccscccccscccccsscccccccccccccccssscsscsccssscccscsccsccccccccccccccscccscccscscccscccccscccsccscscsccccccscccccccccccccccccccccccscccccsccccssccccscccccscccsccccc" />
  <image
     sodipodi:absref="/home/forest/projects/virtualdragon/models/dragon-v2/images/dragon-trunk-connection.png"
     xlink:href="dragon-trunk-connection.png"
     width="520"
     height="1040"
     id="image4737"
     x="16"
     y="816" />
  <path
     style="fill:#000000;fill-opacity:1"
     d="m 1027.6829,3800.4308 c -1.5581,-0.3056 -3.0656,-0.922 -3.3496,-1.3696 -0.284,-0.4476 -0.5207,-4.0532 -0.5263,-8.0124 l -0.015,-7.1982 -3.1001,0 c -2.2875,0 -3.4038,-0.3355 -4.2582,-1.2796 -1.1472,-1.2677 -1.1178,-1.2799 3.0999,-1.2799 l 4.2584,0 0,-6.7186 0,-6.7184 -7.3583,0 -7.3584,0 0,16.3164 0,16.3165 -4.4791,0 -4.4789,0 0,-17.3631 0,-17.3632 14.5565,0.3288 c 8.2356,0.1861 15.3209,0.6337 16.3164,1.0309 1.7553,0.7004 1.7597,0.7183 1.7597,7.0864 l 0,6.3844 -2.3994,0.6664 c -1.3197,0.3664 -3.1914,0.6679 -4.1591,0.67 -2.8787,0 -1.9984,1.102 1.2797,1.5936 5.3809,0.8069 5.2788,0.6207 5.2788,9.6298 0,8.9256 0.3989,8.3532 -5.0724,7.2798 z m -100.50394,-17.5414 0,-17.7633 10.07783,0.3385 c 11.14959,0.375 15.17453,1.2684 19.97514,4.4343 9.91445,6.5389 10.03298,19.3266 0.24064,25.9807 -4.76651,3.2389 -8.73076,4.1279 -19.89596,4.4621 l -10.39765,0.3114 z m 20.69599,13.5992 c 4.42749,-2.4444 6.81064,-7.2025 6.81064,-13.5977 0,-9.6835 -5.05708,-15.0368 -14.20516,-15.0368 l -4.34348,0 0,14.9834 c 0,11.3674 0.19294,15.0706 0.79983,15.3446 1.66785,0.7538 8.3909,-0.2872 10.93817,-1.6935 z m 265.24225,2.9662 c -14.2834,-4.9339 -17.2025,-21.8773 -5.1065,-29.6392 8.992,-5.7702 23.5081,-4.7895 30.6745,2.0722 8.6075,8.2419 5.884,21.2643 -5.5556,26.562 -3.0541,1.4143 -4.6667,1.7031 -10.3368,1.851 -4.8726,0.1276 -7.531,-0.1061 -9.6756,-0.846 z m 13.313,-1.5667 c 5.3369,-2.0118 8.2134,-7.9198 7.7503,-15.9189 -0.5824,-10.057 -6.9176,-15.7125 -15.1258,-13.5025 -6.0597,1.6319 -9.2274,6.7324 -9.2274,14.8577 0,9.2462 4.746,15.2428 12.0644,15.2428 1.5055,0 3.5477,-0.3054 4.5385,-0.6791 z m 51.3902,-12.9608 0,-15.5597 3.679,-1.1686 c 2.8467,-0.9041 5.417,-1.1392 11.3575,-1.0388 8.4909,0.1429 11.9446,0.7801 16.4764,3.0394 l 3.0392,1.5153 0,14.0662 0,14.066 -4.7989,0 -4.799,0 0,-13.7423 0,-13.7422 -1.7219,-1.1282 c -1.8264,-1.1967 -9.7093,-1.9422 -12.673,-1.1984 l -1.6015,0.4021 0,15.0242 0,15.0247 -4.479,0 -4.4788,0 z m -134.4234,14.3261 c -3.0204,-0.2634 -5.8278,-0.6865 -6.2385,-0.9401 -1.1053,-0.683 -1.0542,-30.8242 0.052,-31.5412 0.4399,-0.2846 8.0703,-0.6149 16.9563,-0.7341 l 16.1563,-0.2164 0,3.5756 0,3.5758 -4.7989,0 -4.7989,0 -5e-4,-2.7193 -10e-5,-2.7195 -7.358,-0.072 -7.3583,-0.07 0,15.2686 0,15.2682 7.3586,0 7.3583,0 0,-7.3582 0,-7.3585 -5.279,-0.02 c -4.7811,-0.019 -5.1616,-0.109 -4.0367,-0.9598 0.9531,-0.7208 3.3017,-0.9392 10.0965,-0.9392 l 8.8542,0 -0.1785,8.4329 -0.1786,8.433 -1.7401,0.4642 c -2.7901,0.745 -18.8807,1.154 -24.8672,0.6321 z m -73.7434,-0.473 c -0.2346,-0.2344 -0.4265,-6.2772 -0.4265,-13.4276 l 0,-13.0015 2.3992,-1.5837 c 4.5769,-3.0213 7.6541,-3.7881 15.1967,-3.7881 7.5428,0 10.6201,0.7668 15.1966,3.7881 l 2.3996,1.5837 0,13.4278 0,13.4278 -4.799,0 -4.7989,0 0,-13.999 0,-13.9992 -2.0795,-0.8776 c -1.1438,-0.4825 -3.8073,-0.8774 -5.9188,-0.8774 -2.1113,0 -4.7748,0.3949 -5.9184,0.8774 -2.0372,0.8595 -2.0798,0.9607 -2.0798,4.959 l 0,4.0815 4.4792,0 c 2.4632,0 4.4787,0.2715 4.4787,0.6035 0,1.2925 -2.9625,2.5957 -5.9009,2.5957 l -3.057,0 0,8.318 0,8.3181 -4.3723,0 c -2.4047,0 -4.5642,-0.1917 -4.7989,-0.4265 z"
     id="path5033"
     inkscape:connector-curvature="0"
     sodipodi:nodetypes="ccccscscccccccccccccsccccsccccccsccccsscscccscccccccsscccccccccccccscccccccccccccccccccccccccccsscccccccsccscccccccccscscssscccsc" />
  <path
     sodipodi:nodetypes="ccscscccccsccsscsccsssssccssccscscssssccsccssscsccccscsscccscsscscccsscscsccscscccccccsscccccccsscsscccccscccccscccccsscccccccccccccccssscsscsccssscccscsccsccccccccccccccscccscccscscccscccccscccsccscscsccccccscccccccccccccccccccccccscccccsccccssccccscccccscccsccccc"
     style="fill:#00357d;fill-opacity:1"
     d="m 3133.2391,728.15212 c -17.1069,-1.5418 -39.93,-7.2442 -50.5697,-12.6359 -4.9847,-2.5258 -16.2901,-9.6837 -16.2901,-10.3139 0,-0.1682 3.0195,1.0604 6.7109,2.7339 19.0952,8.6583 39.2354,9.779 50.6317,2.8173 3.3296,-2.034 5.1673,-2.1696 30.8179,-2.2677 24.2174,-0.093 28.4842,-0.3694 38.0397,-2.4673 21.9421,-4.817 35.7268,-11.5223 46.8873,-22.8077 10.3614,-10.477 15.8493,-23.9664 16.5201,-40.6073 0.75,-18.5904 -4.3663,-33.4719 -14.1729,-41.2232 -22.2966,-17.6246 -68.5575,-12.3998 -139.0688,15.7062 -18.5367,7.389 -50.0567,21.4504 -67.1839,29.972 -35.0999,17.4634 -65.9785,28.1744 -95.6311,33.1724 -13.7253,2.3137 -41.9055,3.1582 -55.9067,1.6755 -39.3418,-4.1661 -75.8359,-19.7294 -112.7669,-48.0915 -12.6341,-9.7025 -44.5715,-38.1923 -43.089,-38.4375 0.7158,-0.1184 11.4089,-0.942 23.7622,-1.8303 12.3534,-0.8883 24.8257,-1.8703 27.716,-2.1819 l 5.2553,-0.5666 4.662,7.098 c 6.0176,9.162 23.3763,26.4893 33.4504,33.3898 32.088,21.9792 74.5393,31.19 119.509,25.9298 31.4527,-3.6792 55.8279,-11.2447 94.0833,-29.2012 50.5339,-23.7202 105.7312,-42.297 139.7938,-47.0478 14.7914,-2.063 36.5461,-2.0674 46.1296,0 16.0829,3.4535 30.5366,13.4172 36.9669,25.4824 6.5124,12.2179 8.8481,27.433 6.3644,41.4559 -7.2446,40.9022 -38.9584,70.0212 -85.2206,78.2479 -9.085,1.6155 -38.1107,2.8449 -47.4008,2.0078 z m -522.7013,-188.567 c -20.7065,-25.87704 -38.2287,-61.50981 -44.7161,-90.93328 -2.833,-12.84984 -3.3422,-36.96232 -1.0005,-47.36989 9.8997,-43.99754 42.1907,-75.02751 102.4893,-98.48632 18.6096,-7.24047 64.7706,-20.07049 64.7706,-18.00241 0,1.99212 -3.9715,3.51242 -16.3961,6.2774 -46.499,10.34745 -82.4906,27.53537 -107.2773,51.23189 -30.9807,29.61769 -40.6801,67.53084 -28.9133,113.0214 4.9252,19.04118 8.7922,28.25475 25.9869,61.91775 2.2899,4.48228 10.8303,27.84176 10.3539,28.31846 -0.1568,0.1558 -2.5416,-2.5311 -5.2974,-5.975 z m 742.3481,-4.32256 c 0.2679,-0.71818 2.2536,-6.24202 4.4123,-12.27519 2.1588,-6.03304 7.8105,-18.72605 12.5592,-28.20633 14.6076,-29.16222 20.944,-48.4185 23.52,-71.47558 5.5973,-50.10427 -20.2167,-91.60035 -73.7098,-118.48804 -15.0818,-7.58074 -24.3074,-11.29137 -40.1728,-16.15754 -12.4584,-3.8217 -34.1508,-9.08349 -37.4464,-9.08349 -1.0382,0 -3.0271,-1.21341 -4.4201,-2.69687 l -2.5328,-2.69633 3.134,0.75556 c 59.4585,14.3426 91.52,27.46168 120.6608,49.37292 13.9542,10.4927 27.1982,25.13886 34.1752,37.79463 3.792,6.87839 8.4452,19.32278 10.3521,27.68395 2.275,9.97752 2.5702,34.93348 0.5347,45.24994 -5.92,30.00358 -19.8433,59.78022 -42.2228,90.2978 -7.6737,10.46437 -10.032,13.11096 -8.8436,9.92457 z m 6.8288,-75.79637 c 1.9302,-53.45148 -21.3336,-87.40872 -67.1617,-98.03391 -6.6213,-1.53533 -12.5894,-1.93772 -28.7287,-1.93772 -18.6875,0 -20.776,0.1857 -25.2674,2.26242 -9.1761,4.24045 -11.4265,13.74082 -6.6358,28.01186 2.4274,7.23103 9.4036,20.24741 14.5692,27.18326 4.1385,5.55683 4.325,6.12297 1.5288,4.64617 -1.3622,-0.71951 -5.2973,-3.18586 -8.7448,-5.48087 -33.5641,-22.34409 -50.3227,-27.45184 -58.0234,-17.68317 -2.9713,3.76942 -2.2803,8.93636 2.4213,18.09952 l 3.5558,6.93094 -6.3621,-5.14752 c -13.7882,-11.15609 -29.9643,-16.57776 -39.9005,-13.37381 -4.6245,1.49116 -15.2147,8.7045 -21.3532,14.54413 -2.9462,2.80289 -4.1328,3.43686 -4.1328,2.20908 0,-3.55832 -5.4809,-12.51676 -11.3205,-18.50297 -9.187,-9.41803 -25.3676,-19.50449 -41.9157,-26.12908 -1.9937,-0.79813 -0.4742,-1.05353 6.7905,-1.14039 16.2604,-0.19567 33.6143,-6.01348 50.1381,-16.81254 18.9835,-12.40741 29.2153,-26.25957 29.2153,-39.5545 0,-3.6618 0.4606,-6.55714 1.0444,-6.56432 0.5746,-0.0253 5.2759,-2.56997 10.4466,-5.69424 15.2111,-9.19096 20.9971,-11.98361 28.4678,-13.74042 16.2921,-3.83167 39.187,2.11451 60.887,15.81316 2.3884,1.50739 4.5491,2.53378 4.8017,2.28104 0.2532,-0.25314 -2.0607,-2.76351 -5.142,-5.57957 -6.7193,-6.14119 -16.0512,-11.29349 -27.3778,-15.11532 l -8.3576,-2.82032 3.9822,-0.7521 c 8.5976,-1.62512 33.8366,3.4382 51.8833,10.40784 42.6564,16.47414 76.3746,44.06298 92.4838,75.67266 14.6726,28.7911 14.5642,60.20457 -0.3298,95.27333 l -1.9638,4.62474 0.5018,-13.89765 z m -750.9279,5.28027 c -3.1206,-8.28961 -5.8578,-19.27995 -7.3583,-29.54093 -1.6811,-11.49409 -0.6767,-32.57355 2.0319,-42.65921 2.3297,-8.67351 8.8045,-22.77348 13.8631,-30.18861 18.0024,-26.38874 51.6823,-46.88929 97.2916,-59.22035 15.6897,-4.24177 27.4292,-5.84867 43.0606,-5.8939 24.1154,-0.0705 36.445,3.30199 63.9266,17.48151 9.3036,4.80046 17.6479,8.72791 18.543,8.72791 1.8801,0 2.1669,1.6327 0.471,2.68091 -1.5534,0.95961 0.9112,2.50532 4.0291,2.52674 2.7993,0.0253 2.833,0.23079 0.6871,4.38091 -2.325,4.49612 -2.218,11.39978 0.241,15.61163 6.0737,10.39959 22.4598,14.54892 53.1332,13.45296 8.0439,-0.28706 14.6879,-0.52211 14.7646,-0.52211 0.074,0 0.4828,1.60344 0.9031,3.56297 l 0.7645,3.56324 -17.096,-0.68679 c -29.1527,-1.17165 -38.8641,-3.32726 -48.2787,-10.71658 -6.7707,-5.31379 -10.076,-10.99526 -10.0976,-17.35833 -0.025,-7.58938 -1.4089,-8.97041 -14.6102,-14.59361 -6.6075,-2.8146 -16.95,-7.442 -22.9831,-10.28307 -6.033,-2.84173 -15.2002,-6.16034 -20.3711,-7.37549 -12.8034,-3.00747 -32.7521,-3.00122 -50.5988,0.0253 -7.1446,1.20796 -13.0993,2.30565 -13.2329,2.43921 -0.1344,0.13302 9.473,0.26883 21.3478,0.30169 26.5506,0.0718 27.8923,0.37099 60.9849,13.56602 13.6284,5.43392 25.411,9.88015 26.1835,9.88015 0.7727,0 2.2206,0.59647 3.2183,1.32622 1.7024,1.24468 1.7077,1.58069 0.09,5.45493 -2.3572,5.64196 -1.5615,12.99151 1.8982,17.5274 3.0514,4.00074 12.2046,9.17673 20.6262,11.66302 10.6906,3.15659 24.4713,4.83718 44.958,5.4834 l 20.4084,0.64302 5.1743,8.76716 c 6.9023,11.69628 16.5591,21.34896 25.8562,25.84641 l 7.237,3.50005 -6.1123,2.29568 c -16.139,6.06283 -37.475,6.9433 -60.0348,2.47898 -11.0782,-2.19192 -17.2356,-2.78839 -29.6519,-2.87273 -14.247,-0.0944 -16.0588,0.10243 -19.9504,2.18421 -2.5155,1.34617 -4.9668,3.7085 -5.9459,5.72949 -1.1079,2.28769 -1.8222,2.91981 -2.1336,1.88837 -6.0182,-19.92537 -14.8206,-27.59777 -32.8118,-28.59968 -11.4743,-0.63903 -28.8183,6.13693 -52.9559,20.68771 -6.2802,3.78592 -11.559,6.88358 -11.73,6.88358 -1.8544,0 8.8219,-17.22038 20.1838,-32.55559 10.348,-13.96735 12.4665,-18.10418 11.416,-22.28982 -2.8924,-11.52455 -47.1694,-7.529 -85.9891,7.75965 -46.3884,18.26926 -70.72,47.69114 -68.9622,83.38856 0.2615,5.31485 0.3402,9.66332 0.1736,9.66332 -0.1653,0 -1.3191,-2.70339 -2.5626,-6.00684 z m 461.072,-11.36146 c 5.0798,-5.33149 9.0565,-13.40667 9.0565,-18.38978 0,-13.14395 -12.3017,-22.87125 -48.6949,-38.50349 -22.264,-9.56329 -33.8124,-15.96387 -41.5747,-23.04352 -5.5559,-5.06664 -11.4707,-13.92186 -12.7122,-19.0308 -0.6837,-2.81446 -0.2308,-2.59564 7.8234,3.77248 12.9146,10.21203 11.3269,9.57579 67.4744,27.04705 18.9035,5.88233 29.1871,11.11432 38.1416,19.40419 10.1981,9.44211 13.0479,14.56409 13.0479,23.45149 0,6.05925 -0.4104,7.54842 -3.1679,11.4917 -5.3947,7.7139 -13.9278,12.47712 -30.7116,17.14283 -2.2952,0.6381 -2.1686,0.31659 1.3175,-3.34215 z m -90.7105,-40.81847 c -5.7315,-0.76115 -16.6306,-4.68554 -23.4905,-8.45855 -4.0751,-2.24114 -10.3665,-7.29408 -15.7851,-12.67824 -14.2645,-14.1746 -20.7055,-29.60705 -19.4324,-46.56072 1.6469,-21.93559 17.5686,-43.99594 46.1719,-63.97212 4.5964,-3.21034 8.8276,-6.28818 9.4022,-6.83915 2.2978,-2.20589 -7.713,0.67308 -16.1575,4.64589 -11.3748,5.35158 -17.4471,6.46683 -28.0054,5.14313 -7.9191,-0.99327 -24.6788,-5.76846 -31.8239,-9.06792 l -3.4092,-1.57377 3.1339,0.66511 c 8.8878,1.8877 15.6149,2.61014 25.1785,2.70551 12.4632,0.12238 20.3211,-1.8156 28.0672,-6.92787 10.6157,-7.00582 17.3022,-9.87629 29.023,-12.46075 2.0146,-0.44443 2.873,-1.28525 2.873,-2.81473 0,-1.48798 -0.487,-1.99425 -1.5326,-1.5932 -2.9351,1.12629 -12.7033,-2.72892 -32.9421,-13.00095 -19.7475,-10.02314 -33.5575,-17.56318 -32.2874,-17.62769 0.341,-0.0253 3.3967,0.93234 6.7904,2.11038 25.5507,8.86892 49.8194,9.48294 60.2839,1.52602 9.2767,-7.05451 12.6287,-7.54403 14.8731,-2.17237 1.9124,4.57646 3.2918,5.39228 5.5955,3.30797 4.4655,-4.04172 8.86,-1.18708 14.7854,9.60452 4.0001,7.2849 7.5224,9.36097 10.0401,5.91745 2.8479,-3.89486 1.2976,-10.76514 -5.9433,-26.33313 -4.6887,-10.08088 -3.7032,-10.0979 5.8479,-0.0998 12.1356,12.70073 18.9024,25.29224 22.4071,41.69175 1.1314,5.29278 2.585,10.26005 3.2313,11.03849 0.7306,0.88074 0.9146,3.14462 0.4867,5.99779 -0.6472,4.31494 -0.2529,5.32963 6.7414,17.34702 7.0444,12.1028 7.3382,12.86421 5.6722,14.70562 -1.4682,1.62153 -1.5623,2.5004 -0.5726,5.33934 0.6514,1.86841 2.1737,4.45088 3.3827,5.73826 4.6861,4.9875 4.8514,21.57098 0.2605,26.16153 -1.3233,1.32343 -3.2934,2.40622 -4.3784,2.40622 -3.404,0 -10.4417,-4.52923 -13.7987,-8.87982 -1.773,-2.29861 -6.3104,-7.31789 -10.0827,-11.15462 -5.5771,-5.67162 -7.8021,-7.20123 -11.9053,-8.18572 -5.5335,-1.32729 -9.3463,-0.66351 -9.3463,1.62631 0,0.82234 4.7061,3.82463 10.6587,6.80004 5.8625,2.93019 11.9727,6.2633 13.5785,7.40675 3.0519,2.17304 9.7404,11.14238 8.9202,11.96246 -0.9836,0.98343 -3.6665,-0.82925 -4.7517,-3.21166 -1.6037,-3.51961 -8.7421,-7.37124 -19.3653,-10.44988 -12.7483,-3.69452 -18.2952,-6.77742 -24.5946,-13.67031 -7.1293,-7.80009 -9.5186,-12.63834 -9.5186,-19.27436 0,-6.31252 -1.1114,-6.07388 -3.5858,0.76939 -4.0786,11.27753 -3.7012,10.7086 -6.322,9.51474 -3.4531,-1.57338 -4.9651,-5.36621 -3.114,-7.80954 0.8053,-1.06311 1.4788,-2.23915 1.4974,-2.61387 0.048,-1.00377 -6.3188,-3.04618 -7.4046,-2.37522 -1.786,1.10341 -9.4823,13.18439 -12.4775,19.58576 -13.9067,29.71985 -7.3521,64.82147 16.0502,85.9548 2.9876,2.69793 7.6821,5.95416 10.432,7.23621 3.617,1.68645 4.5323,2.51025 3.3096,2.97941 -1.7689,0.67881 -11.2952,0.63265 -16.667,-0.0798 z m 43.625,-112.78516 c -0.9737,-0.39361 -0.8937,-0.92676 0.3211,-2.1419 0.89,-0.88952 1.3505,-2.31457 1.0234,-3.16657 -0.4391,-1.14491 -0.1118,-1.35562 1.2457,-0.8093 1.0123,0.40598 2.5452,1.00138 3.407,1.32249 0.8621,0.32085 -0.5481,-1.13573 -3.1338,-3.2376 -5.1805,-4.21091 -11.3149,-6.49848 -12.975,-4.83851 -0.6684,0.66857 -0.3171,1.03664 1.0131,1.06071 1.1206,0.0253 3.2126,0.70887 4.649,1.53001 2.5233,1.44235 2.5342,1.4941 0.3227,1.53014 -3.0479,0.0506 -3.8281,1.56753 -2.2893,4.45501 1.1892,2.23197 1.1457,2.28291 -0.7349,0.86185 -1.0997,-0.83098 -3.7901,-3.18173 -5.9783,-5.22334 -2.8816,-2.68916 -3.7742,-3.13704 -3.2367,-1.62366 1.5346,4.31773 6.2465,7.95294 12.9547,9.99308 2.9262,0.89031 5.4238,1.10022 3.4113,0.28759 z m 27.6884,66.46946 c -4.2515,-0.71591 -15.4202,-3.96695 -15.4245,-4.48959 -6e-4,-0.0971 6.3966,-0.0253 14.2163,0.16814 31.1085,0.75316 53.5258,-5.95057 67.9344,-20.31552 6.4474,-6.42785 11.8816,-15.84375 13.4567,-23.31767 0.4163,-1.97484 1.7264,-4.3764 2.9114,-5.33575 2.1539,-1.74391 2.1539,-1.74417 -0.6872,-3.6062 l -2.8416,-1.8615 10.2247,-3.38299 c 5.6236,-1.86097 16.5707,-5.73521 24.3277,-8.61006 14.7571,-5.4693 20.5051,-7.31337 17.7596,-5.69756 -22.2134,13.07278 -38.2173,19.96873 -42.8974,18.48342 -2.6956,-0.85559 -2.56,0.27548 0.3265,2.72547 2.2114,1.87679 2.2425,2.07925 0.5223,3.41651 -1.1119,0.86504 -1.8281,2.83109 -1.8281,5.01916 0,9.60984 -15.0588,27.53337 -30.3074,36.07346 -17.4918,9.79648 -39.2313,13.84019 -57.6934,10.73175 z m -64.2911,-10.75954 c -6.1991,-3.86001 -9.5348,-8.21539 -12.0791,-15.77046 -1.6858,-5.00638 -2.2833,-9.99959 -1.1966,-9.99959 0.2952,0 3.0824,2.07273 6.1934,4.60652 3.1105,2.53405 6.5586,4.89331 7.662,5.24369 1.4567,0.46252 2.6208,2.88124 4.2537,8.83872 3.3729,12.30818 3.4287,12.22611 -4.8334,7.08112 z m -6.7052,-25.23478 c -3.9436,-2.67984 -5.6315,-5.77564 -5.1322,-9.41523 0.3731,-2.72015 5.4319,-14.10543 6.2637,-14.09692 0.3523,0 1.3989,1.34019 2.3257,2.9697 0.9576,1.68285 4.0911,4.1617 7.2568,5.7388 5.3326,2.65749 5.4281,2.77668 2.2325,2.77668 -3.048,0 -3.3488,0.29637 -3.4503,3.39523 -0.062,1.86762 -0.2159,4.10051 -0.3433,4.96249 -0.1277,0.86171 -0.3131,2.62477 -0.4113,3.91734 -0.2434,3.1953 -3.8237,3.09394 -8.7416,-0.24835 z"
     id="path5543"
     inkscape:connector-curvature="0" />
  <path
     sodipodi:nodetypes="ccccscscccccccccccccsccccsccccccsccccsscscccscccccccsscccccccccccccscccccccccccccccccccccccccccsscccccccsccscccccccccscscssscccsc"
     inkscape:connector-curvature="0"
     id="path5545"
     d="m 2836.625,537.52153 c -2.5439,-0.49897 -5.0052,-1.5054 -5.4689,-2.23609 -0.4635,-0.73082 -0.8501,-6.61767 -0.8593,-13.0817 l -0.025,-11.75241 -5.0614,0 c -3.7348,0 -5.5574,-0.54778 -6.9524,-2.08923 -1.8729,-2.06981 -1.8249,-2.08963 5.0612,-2.08963 l 6.9526,0 0,-10.96932 0,-10.96906 -12.0138,0 -12.0138,0 0,26.63948 0,26.63961 -7.3129,0 -7.3126,0 0,-28.3484 0,-28.34853 23.7659,0.53674 c 13.4464,0.30395 25.0143,1.03464 26.6397,1.68325 2.8658,1.14345 2.8729,1.17271 2.8729,11.56978 l 0,10.42366 -3.9173,1.08798 c -2.1547,0.59833 -5.2106,1.09051 -6.7906,1.09397 -4.7,0 -3.2627,1.79924 2.0894,2.60189 8.7852,1.31731 8.6185,1.01336 8.6185,15.72244 0,14.57256 0.6513,13.63799 -8.2814,11.88557 z m -164.091,-28.63959 0,-29.00179 16.4539,0.5527 c 18.2037,0.61216 24.7752,2.07087 32.6131,7.23967 16.1871,10.67601 16.3806,31.55434 0.3928,42.41831 -7.7821,5.28813 -14.2545,6.73952 -32.4838,7.28517 l -16.976,0.50841 z m 33.7899,22.20323 c 7.2288,-3.99104 11.1197,-11.75947 11.1197,-22.2007 0,-15.81009 -8.2567,-24.55038 -23.1925,-24.55038 l -7.0915,0 0,24.46312 c 0,18.55937 0.315,24.60545 1.3058,25.0528 2.7231,1.23084 13.6997,-0.46877 17.8585,-2.76484 z m 433.0564,4.8429 c -23.3202,-8.0555 -28.0861,-35.7187 -8.3372,-48.39149 14.6811,-9.42096 38.3812,-7.81978 50.0818,3.38325 14.0533,13.45642 9.6066,34.71785 -9.0706,43.36729 -4.9864,2.30911 -7.6192,2.78067 -16.8768,3.0221 -7.9553,0.20832 -12.2957,-0.17319 -15.7972,-1.38115 z m 21.7359,-2.558 c 8.7136,-3.28469 13.4099,-12.93045 12.6538,-25.99047 -0.9508,-16.41999 -11.2941,-25.65352 -24.6955,-22.04532 -9.8936,2.66428 -15.0654,10.9918 -15.0654,24.25786 0,15.09617 7.7487,24.88666 19.6973,24.88666 2.458,0 5.7922,-0.49856 7.4098,-1.10873 z m 83.9039,-21.16087 0,-25.40411 6.0067,-1.90792 c 4.6478,-1.47614 8.8442,-1.8599 18.5432,-1.69602 13.863,0.23332 19.5018,1.27368 26.9008,4.96235 l 4.962,2.47406 0,22.96557 0,22.9653 -7.8351,0 -7.8352,0 0,-22.43681 0,-22.43667 -2.8113,-1.84194 c -2.9819,-1.95382 -15.8522,-3.17096 -20.691,-1.95661 l -2.6148,0.65646 0,24.52989 0,24.53043 -7.3127,0 -7.3126,0 z m -219.4706,23.38991 c -4.9315,-0.42993 -9.515,-1.12084 -10.1856,-1.5348 -1.8045,-1.11512 -1.7211,-50.32615 0.085,-51.49674 0.7181,-0.46464 13.1761,-1.00391 27.6842,-1.19865 l 26.3781,-0.35331 0,5.8379 0,5.83817 -7.8351,0 -7.8351,0 -8e-4,-4.43985 -2e-4,-4.43998 -12.0133,-0.11706 -12.0137,-0.1144 0,24.92883 0,24.92816 12.0142,0 12.0138,0 0,-12.01367 0,-12.01407 -8.619,-0.0319 c -7.8059,-0.0306 -8.4272,-0.17811 -6.5906,-1.56712 1.5561,-1.17684 5.3907,-1.53347 16.4844,-1.53347 l 14.456,0 -0.2913,13.76836 -0.2917,13.76835 -2.8409,0.75782 c -4.5555,1.21635 -30.8262,1.88411 -40.6003,1.03211 z m -120.3997,-0.77219 c -0.383,-0.3827 -0.6964,-10.24875 -0.6964,-21.92308 l 0,-21.22725 3.9172,-2.58566 c 7.4726,-4.93283 12.4967,-6.18482 24.8114,-6.18482 12.3151,0 17.3393,1.25199 24.8112,6.18482 l 3.9178,2.58566 0,21.92335 0,21.92334 -7.8352,0 -7.8351,0 0,-22.85595 0,-22.85623 -3.3951,-1.4329 c -1.8675,-0.78775 -6.2161,-1.4325 -9.6636,-1.4325 -3.4471,0 -7.7957,0.64475 -9.6629,1.4325 -3.3261,1.40337 -3.3955,1.56859 -3.3955,8.09646 l 0,6.66383 7.313,0 c 4.0217,0 7.3123,0.44336 7.3123,0.98529 0,2.11025 -4.8368,4.23805 -9.6344,4.23805 l -4.9909,0 0,13.58066 0,13.58079 -7.1386,0 c -3.9262,0 -7.452,-0.313 -7.8352,-0.69636 z"
     style="fill:#000000;fill-opacity:1" />
  <path
     sodipodi:type="arc"
     style="fill:#404040;fill-opacity:1;stroke:none"
     id="path5582"
     sodipodi:cx="640"
     sodipodi:cy="3824"
     sodipodi:rx="96"
     sodipodi:ry="24"
     d="m 736,3824 a 96,24 0 1 1 -192,0 96,24 0 1 1 192,0 z"
     transform="matrix(0.59126429,-0.15842879,0.25881905,0.96592583,-714.89667,22.777083)" />
  <path
     transform="matrix(0.21568254,0.80493819,-0.96592583,0.25881905,4148.5805,2220.6429)"
     d="m 736,3824 a 96,24 0 1 1 -192,0 96,24 0 1 1 192,0 z"
     sodipodi:ry="24"
     sodipodi:rx="96"
     sodipodi:cy="3824"
     sodipodi:cx="640"
     id="path5586"
     style="fill:#404040;fill-opacity:1;stroke:none"
     sodipodi:type="arc" />
  <path
     sodipodi:type="arc"
     style="fill:#404040;fill-opacity:1;stroke:none"
     id="path5588"
     sodipodi:cx="640"
     sodipodi:cy="3824"
     sodipodi:rx="96"
     sodipodi:ry="24"
     d="m 736,3824 a 96,24 0 1 1 -192,0 96,24 0 1 1 192,0 z"
     transform="matrix(0,0.70833333,-1,0,4352,3150.6667)" />
  <path
     transform="matrix(-0.59126429,-0.15842879,-0.25881905,0.96592583,2970.8969,22.777083)"
     d="m 736,3824 a 96,24 0 1 1 -192,0 96,24 0 1 1 192,0 z"
     sodipodi:ry="24"
     sodipodi:rx="96"
     sodipodi:cy="3824"
     sodipodi:cx="640"
     id="path5596"
     style="fill:#404040;fill-opacity:1;stroke:none"
     sodipodi:type="arc" />
  <path
     sodipodi:type="arc"
     style="fill:#404040;fill-opacity:1;stroke:none"
     id="path5598"
     sodipodi:cx="640"
     sodipodi:cy="3824"
     sodipodi:rx="96"
     sodipodi:ry="24"
     d="m 736,3824 a 96,24 0 1 1 -192,0 96,24 0 1 1 192,0 z"
     transform="matrix(-0.21568254,0.80493819,0.96592583,0.25881905,-1892.5805,2220.6429)" />
  <path
     transform="matrix(0,0.70833333,1,0,-2096,3150.6667)"
     d="m 736,3824 a 96,24 0 1 1 -192,0 96,24 0 1 1 192,0 z"
     sodipodi:ry="24"
     sodipodi:rx="96"
     sodipodi:cy="3824"
     sodipodi:cx="640"
     id="path5600"
     style="fill:#404040;fill-opacity:1;stroke:none"
     sodipodi:type="arc" />
  <path
     transform="matrix(0.59126429,-0.15842879,0.25881905,0.96592583,1133.1032,-1828.2776)"
     d="m 736,3824 a 96,24 0 1 1 -192,0 96,24 0 1 1 192,0 z"
     sodipodi:ry="24"
     sodipodi:rx="96"
     sodipodi:cy="3824"
     sodipodi:cx="640"
     id="path5602"
     style="fill:#404040;fill-opacity:1;stroke:none"
     sodipodi:type="arc" />
  <path
     sodipodi:type="arc"
     style="fill:#404040;fill-opacity:1;stroke:none"
     id="path5604"
     sodipodi:cx="640"
     sodipodi:cy="3824"
     sodipodi:rx="96"
     sodipodi:ry="24"
     d="m 736,3824 a 96,24 0 1 1 -192,0 96,24 0 1 1 192,0 z"
     transform="matrix(0.21568254,0.80493819,-0.96592583,0.25881905,5996.5804,369.58813)" />
  <path
     transform="matrix(0,0.70833333,-1,0,6199.9999,1299.612)"
     d="m 736,3824 a 96,24 0 1 1 -192,0 96,24 0 1 1 192,0 z"
     sodipodi:ry="24"
     sodipodi:rx="96"
     sodipodi:cy="3824"
     sodipodi:cx="640"
     id="path5606"
     style="fill:#404040;fill-opacity:1;stroke:none"
     sodipodi:type="arc" />
  <path
     sodipodi:type="arc"
     style="fill:#404040;fill-opacity:1;stroke:none"
     id="path5608"
     sodipodi:cx="640"
     sodipodi:cy="3824"
     sodipodi:rx="96"
     sodipodi:ry="24"
     d="m 736,3824 a 96,24 0 1 1 -192,0 96,24 0 1 1 192,0 z"
     transform="matrix(-0.59126429,-0.15842879,-0.25881905,0.96592583,4818.8968,-1828.2776)" />
  <path
     transform="matrix(-0.21568254,0.80493819,0.96592583,0.25881905,-44.580505,369.58813)"
     d="m 736,3824 a 96,24 0 1 1 -192,0 96,24 0 1 1 192,0 z"
     sodipodi:ry="24"
     sodipodi:rx="96"
     sodipodi:cy="3824"
     sodipodi:cx="640"
     id="path5610"
     style="fill:#404040;fill-opacity:1;stroke:none"
     sodipodi:type="arc" />
  <path
     sodipodi:type="arc"
     style="fill:#404040;fill-opacity:1;stroke:none"
     id="path5612"
     sodipodi:cx="640"
     sodipodi:cy="3824"
     sodipodi:rx="96"
     sodipodi:ry="24"
     d="m 736,3824 a 96,24 0 1 1 -192,0 96,24 0 1 1 192,0 z"
     transform="matrix(0,0.70833333,1,0,-248,1299.612)" />
</svg>
