<?xml version="1.0" encoding="UTF-8" standalone="no"?>
<!-- Created with Inkscape (http://www.inkscape.org/) -->

<svg
   xmlns:dc="http://purl.org/dc/elements/1.1/"
   xmlns:cc="http://creativecommons.org/ns#"
   xmlns:rdf="http://www.w3.org/1999/02/22-rdf-syntax-ns#"
   xmlns:svg="http://www.w3.org/2000/svg"
   xmlns="http://www.w3.org/2000/svg"
   xmlns:xlink="http://www.w3.org/1999/xlink"
   xmlns:sodipodi="http://sodipodi.sourceforge.net/DTD/sodipodi-0.dtd"
   xmlns:inkscape="http://www.inkscape.org/namespaces/inkscape"
   id="svg3055"
   version="1.1"
   inkscape:version="0.48.4 r9939"
   width="1024"
   height="1024"
   sodipodi:docname="trunk-texture.svg"
   inkscape:export-filename="/home/forest/projects/virtualdragon/models/dragon-v2/images/trunk-texture.png"
   inkscape:export-xdpi="90"
   inkscape:export-ydpi="90">
  <metadata
     id="metadata3061">
    <rdf:RDF>
      <cc:Work
         rdf:about="">
        <dc:format>image/svg+xml</dc:format>
        <dc:type
           rdf:resource="http://purl.org/dc/dcmitype/StillImage" />
        <dc:title />
      </cc:Work>
    </rdf:RDF>
  </metadata>
  <defs
     id="defs3059" />
  <sodipodi:namedview
     pagecolor="#ffffff"
     bordercolor="#666666"
     borderopacity="1"
     objecttolerance="10"
     gridtolerance="10"
     guidetolerance="10"
     inkscape:pageopacity="0"
     inkscape:pageshadow="2"
     inkscape:window-width="640"
     inkscape:window-height="480"
     id="namedview3057"
     showgrid="true"
     inkscape:zoom="0.25000001"
     inkscape:cx="1113.2128"
     inkscape:cy="370.78667"
     inkscape:current-layer="svg3055"
     inkscape:snap-bbox="true"
     inkscape:snap-object-midpoints="false"
     inkscape:snap-smooth-nodes="true"
     inkscape:object-nodes="true"
     showguides="true"
     inkscape:guide-bbox="true"
     borderlayer="true">
    <inkscape:grid
       type="xygrid"
       id="grid3084"
       empspacing="4"
       visible="true"
       enabled="true"
       snapvisiblegridlinesonly="true" />
    <sodipodi:guide
       orientation="0,1"
       position="200,784"
       id="guide3193" />
    <sodipodi:guide
       orientation="1,0"
       position="224,760"
       id="guide3195" />
  </sodipodi:namedview>
  <rect
     style="fill:#ffffff;fill-opacity:1;stroke:#ffffff;stroke-width:2;stroke-miterlimit:4;stroke-opacity:1;stroke-dasharray:none"
     id="rect4150"
     width="1024"
     height="1024"
     x="0"
     y="0" />
  <image
     width="1024"
     height="1024"
     xlink:href="file:///home/forest/projects/virtualdragon/models/dragon-v2/images/trunk-uv.png"
     id="image3063"
     x="-1244.5079"
     y="0" />
  <path
     style="fill:#141e2d;fill-opacity:1;stroke:none"
     d="m 480,16 528,0 0,80 -16,0 0,896 -95,0 0,-28 -65,0 0,28 -336,0 0,-896 -16,0 z"
     id="rect3105"
     inkscape:connector-curvature="0"
     sodipodi:nodetypes="ccccccccccccc" />
  <path
     style="fill:#141e2d;fill-opacity:1;stroke:none"
     d="m 86,649 -16,32 0,319 16,0 z m -18,34 -16,32 0,285 16,0 z m -18,34 -16,32 0,251 16,0 z m -18,35 -16,32 0,216 16,0 z"
     id="path3876"
     inkscape:connector-curvature="0"
     sodipodi:nodetypes="cccccccccccccccccccc" />
  <rect
     y="16"
     x="543"
     height="976"
     width="2"
     id="rect3970"
     style="fill:#ffffff;fill-opacity:0.25098039;stroke:none" />
  <rect
     style="fill:#ffffff;fill-opacity:0.25098039;stroke:none"
     id="rect3059"
     width="2"
     height="976"
     x="559"
     y="16" />
  <rect
     y="16"
     x="592"
     height="976"
     width="2"
     id="rect3063"
     style="fill:#ffffff;fill-opacity:0.25098039;stroke:none" />
  <rect
     style="fill:#ffffff;fill-opacity:0.25098039;stroke:none"
     id="rect3065"
     width="2"
     height="976"
     x="607"
     y="16" />
  <rect
     y="16"
     x="640"
     height="976"
     width="2"
     id="rect3069"
     style="fill:#ffffff;fill-opacity:0.25098039;stroke:none" />
  <rect
     style="fill:#ffffff;fill-opacity:0.25098039;stroke:none"
     id="rect3071"
     width="2"
     height="976"
     x="656"
     y="16" />
  <rect
     y="16"
     x="687"
     height="976"
     width="2"
     id="rect3075"
     style="fill:#ffffff;fill-opacity:0.25098039;stroke:none" />
  <rect
     y="16"
     x="704"
     height="976"
     width="2"
     id="rect3077"
     style="fill:#ffffff;fill-opacity:0.25098039;stroke:none" />
  <rect
     y="16"
     x="735"
     height="976"
     width="2"
     id="rect3081"
     style="fill:#ffffff;fill-opacity:0.25098039;stroke:none" />
  <rect
     style="fill:#ffffff;fill-opacity:0.25098039;stroke:none"
     id="rect3083"
     width="2"
     height="976"
     x="751"
     y="16" />
  <rect
     y="16"
     x="784"
     height="976"
     width="2"
     id="rect3087"
     style="fill:#ffffff;fill-opacity:0.25098039;stroke:none" />
  <rect
     y="16"
     x="799"
     height="976"
     width="2"
     id="rect3089"
     style="fill:#ffffff;fill-opacity:0.25098039;stroke:none" />
  <rect
     style="fill:#ffffff;fill-opacity:0.25098039;stroke:none"
     id="rect3093"
     width="2"
     height="976"
     x="832"
     y="16" />
  <rect
     y="16"
     x="848"
     height="976"
     width="2"
     id="rect3095"
     style="fill:#ffffff;fill-opacity:0.25098039;stroke:none" />
  <rect
     y="16"
     x="879"
     height="976"
     width="2"
     id="rect3099"
     style="fill:#ffffff;fill-opacity:0.25098039;stroke:none" />
  <rect
     y="16"
     x="896"
     height="976"
     width="2"
     id="rect3101"
     style="fill:#ffffff;fill-opacity:0.25098039;stroke:none" />
  <rect
     style="fill:#ffffff;fill-opacity:0.25098039;stroke:none"
     id="rect3106"
     width="2"
     height="976"
     x="927"
     y="16" />
  <rect
     y="16"
     x="943"
     height="976"
     width="2"
     id="rect3108"
     style="fill:#ffffff;fill-opacity:0.25098039;stroke:none" />
  <rect
     style="fill:#ffffff;fill-opacity:0.25098039;stroke:none"
     id="rect3112"
     width="2"
     height="976"
     x="976"
     y="16" />
  <rect
     y="16"
     x="511"
     height="992"
     width="2.0655518"
     id="rect3975"
     style="fill:#ffffff;fill-opacity:0.25098039;stroke:none" />
  <rect
     style="fill:#ffffff;fill-opacity:0.25098039;stroke:none"
     id="rect3977"
     width="2.0655518"
     height="992"
     x="494.93445"
     y="16" />
  <rect
     y="16"
     x="991"
     height="976"
     width="2"
     id="rect4070"
     style="fill:#ffffff;fill-opacity:0.25098039;stroke:none" />
  <path
     style="fill:none;stroke:#ffffff;stroke-width:2;stroke-linecap:butt;stroke-linejoin:miter;stroke-miterlimit:4;stroke-opacity:1;stroke-dasharray:none"
     d="m 480,178 528,0"
     id="path4074"
     inkscape:connector-curvature="0" />
  <path
     inkscape:connector-curvature="0"
     id="path4076"
     d="m 480,340 528,0"
     style="fill:none;stroke:#ffffff;stroke-width:2;stroke-linecap:butt;stroke-linejoin:miter;stroke-miterlimit:4;stroke-opacity:1;stroke-dasharray:none" />
  <path
     style="fill:none;stroke:#ffffff;stroke-width:2;stroke-linecap:butt;stroke-linejoin:miter;stroke-miterlimit:4;stroke-opacity:1;stroke-dasharray:none"
     d="m 480,502 528,0"
     id="path4078"
     inkscape:connector-curvature="0" />
  <path
     inkscape:connector-curvature="0"
     id="path4080"
     d="m 480,664 528,0"
     style="fill:none;stroke:#ffffff;stroke-width:2;stroke-linecap:butt;stroke-linejoin:miter;stroke-miterlimit:4;stroke-opacity:1;stroke-dasharray:none" />
  <path
     style="fill:none;stroke:#ffffff;stroke-width:2;stroke-linecap:butt;stroke-linejoin:miter;stroke-miterlimit:4;stroke-opacity:1;stroke-dasharray:none"
     d="m 480,826 528,0"
     id="path4082"
     inkscape:connector-curvature="0" />
  <rect
     style="fill:#ffffff;fill-opacity:1;stroke:none"
     id="rect3979"
     width="4"
     height="992"
     x="526"
     y="16" />
  <rect
     y="16"
     x="574"
     height="992"
     width="4"
     id="rect4004"
     style="fill:#ffffff;fill-opacity:1;stroke:none" />
  <rect
     y="16"
     x="622"
     height="992"
     width="4"
     id="rect4006"
     style="fill:#ffffff;fill-opacity:1;stroke:none" />
  <rect
     style="fill:#ffffff;fill-opacity:1;stroke:none"
     id="rect4008"
     width="4"
     height="992"
     x="670"
     y="16" />
  <rect
     y="16"
     x="718"
     height="992"
     width="4"
     id="rect4010"
     style="fill:#ffffff;fill-opacity:1;stroke:none" />
  <rect
     style="fill:#ffffff;fill-opacity:1;stroke:none"
     id="rect4012"
     width="4"
     height="992"
     x="766"
     y="16" />
  <rect
     style="fill:#ffffff;fill-opacity:1;stroke:none"
     id="rect4014"
     width="4"
     height="992"
     x="814"
     y="16" />
  <rect
     y="16"
     x="862"
     height="992"
     width="4"
     id="rect4016"
     style="fill:#ffffff;fill-opacity:1;stroke:none" />
  <rect
     style="fill:#ffffff;fill-opacity:1;stroke:none"
     id="rect4018"
     width="4"
     height="992"
     x="910"
     y="16" />
  <rect
     y="16"
     x="958"
     height="992"
     width="4"
     id="rect4020"
     style="fill:#ffffff;fill-opacity:1;stroke:none" />
  <path
     inkscape:connector-curvature="0"
     id="path4111"
     d="m 480,259 528,0"
     style="fill:none;stroke:#ffffff;stroke-width:2;stroke-linecap:butt;stroke-linejoin:miter;stroke-miterlimit:4;stroke-opacity:0.25098041;stroke-dasharray:none" />
  <path
     style="fill:none;stroke:#ffffff;stroke-width:2;stroke-linecap:butt;stroke-linejoin:miter;stroke-miterlimit:4;stroke-opacity:0.25098041;stroke-dasharray:none"
     d="m 480,421 528,0"
     id="path4113"
     inkscape:connector-curvature="0" />
  <path
     inkscape:connector-curvature="0"
     id="path4115"
     d="m 480,583 528,0"
     style="fill:none;stroke:#ffffff;stroke-width:2;stroke-linecap:butt;stroke-linejoin:miter;stroke-miterlimit:4;stroke-opacity:0.25098041;stroke-dasharray:none" />
  <path
     style="fill:none;stroke:#ffffff;stroke-width:2;stroke-linecap:butt;stroke-linejoin:miter;stroke-miterlimit:4;stroke-opacity:0.25098041;stroke-dasharray:none"
     d="m 480,745 528,0"
     id="path4117"
     inkscape:connector-curvature="0" />
  <path
     inkscape:connector-curvature="0"
     id="path4119"
     d="m 480,907 528,0"
     style="fill:none;stroke:#ffffff;stroke-width:2;stroke-linecap:butt;stroke-linejoin:miter;stroke-miterlimit:4;stroke-opacity:0.25098041;stroke-dasharray:none" />
  <path
     style="fill:none;stroke:#ffffff;stroke-width:2;stroke-linecap:butt;stroke-linejoin:miter;stroke-miterlimit:4;stroke-opacity:0.25098039;stroke-dasharray:none"
     d="m 480,97 528,0"
     id="path4121"
     inkscape:connector-curvature="0" />
  <rect
     style="fill:#7a7a7a;fill-opacity:1;stroke:none"
     id="rect3890"
     width="57"
     height="48"
     x="836"
     y="968" />
  <path
     style="fill:none;stroke:#ffffff;stroke-width:2;stroke-linecap:butt;stroke-linejoin:miter;stroke-opacity:1;stroke-miterlimit:4;stroke-dasharray:none"
     d="m 0,968 112,0"
     id="path4123"
     inkscape:connector-curvature="0"
     sodipodi:nodetypes="cc" />
  <path
     sodipodi:nodetypes="cc"
     inkscape:connector-curvature="0"
     id="path4125"
     d="m 0,936 112,0"
     style="fill:none;stroke:#ffffff;stroke-width:2;stroke-linecap:butt;stroke-linejoin:miter;stroke-miterlimit:4;stroke-opacity:0.25098039;stroke-dasharray:none" />
  <path
     sodipodi:nodetypes="cc"
     inkscape:connector-curvature="0"
     id="path4127"
     d="m 0,904 111,0"
     style="fill:none;stroke:#ffffff;stroke-width:2;stroke-linecap:butt;stroke-linejoin:miter;stroke-miterlimit:4;stroke-opacity:1;stroke-dasharray:none" />
  <path
     style="fill:none;stroke:#ffffff;stroke-width:2;stroke-linecap:butt;stroke-linejoin:miter;stroke-miterlimit:4;stroke-opacity:0.25098039;stroke-dasharray:none"
     d="m 0,872 111,0"
     id="path4129"
     inkscape:connector-curvature="0"
     sodipodi:nodetypes="cc" />
  <path
     sodipodi:nodetypes="cc"
     inkscape:connector-curvature="0"
     id="path4131"
     d="m 0,840 112,0"
     style="fill:none;stroke:#ffffff;stroke-width:2;stroke-linecap:butt;stroke-linejoin:miter;stroke-miterlimit:4;stroke-opacity:1;stroke-dasharray:none" />
  <path
     style="fill:none;stroke:#ffffff;stroke-width:2;stroke-linecap:butt;stroke-linejoin:miter;stroke-miterlimit:4;stroke-opacity:0.25098039;stroke-dasharray:none"
     d="m 0,808 112,0"
     id="path4133"
     inkscape:connector-curvature="0"
     sodipodi:nodetypes="cc" />
  <path
     style="fill:none;stroke:#ffffff;stroke-width:2;stroke-linecap:butt;stroke-linejoin:miter;stroke-miterlimit:4;stroke-opacity:1;stroke-dasharray:none"
     d="M 6.1299423,776 111,776"
     id="path4135"
     inkscape:connector-curvature="0"
     sodipodi:nodetypes="cc" />
  <path
     sodipodi:nodetypes="cc"
     inkscape:connector-curvature="0"
     id="path4137"
     d="M 6.0987194,744 111,744"
     style="fill:none;stroke:#ffffff;stroke-width:2;stroke-linecap:butt;stroke-linejoin:miter;stroke-miterlimit:4;stroke-opacity:0.25098039;stroke-dasharray:none" />
  <path
     style="fill:none;stroke:#ffffff;stroke-width:2;stroke-linecap:butt;stroke-linejoin:miter;stroke-miterlimit:4;stroke-opacity:1;stroke-dasharray:none"
     d="M 25.512933,712 111,712"
     id="path4139"
     inkscape:connector-curvature="0"
     sodipodi:nodetypes="cc" />
  <path
     sodipodi:nodetypes="cc"
     inkscape:connector-curvature="0"
     id="path4147"
     d="M 25.512933,680 111,680"
     style="fill:none;stroke:#ffffff;stroke-width:2;stroke-linecap:butt;stroke-linejoin:miter;stroke-miterlimit:4;stroke-opacity:0.25098039;stroke-dasharray:none" />
  <path
     style="fill:#bfbfbf;fill-opacity:1;stroke:none"
     d="m 572,1000.0625 2,0 0,-8.0625 4,0 0,8.0625 2,0 0,8 -8,0 z"
     id="rect4152"
     inkscape:connector-curvature="0"
     sodipodi:nodetypes="ccccccccc" />
  <path
     sodipodi:nodetypes="ccccccccc"
     inkscape:connector-curvature="0"
     id="path4155"
     d="m 524,1000.0625 2,0 0,-8.0625 4,0 0,8.0625 2,0 0,8 -8,0 z"
     style="fill:#bfbfbf;fill-opacity:1;stroke:none" />
  <path
     sodipodi:nodetypes="ccccccccc"
     inkscape:connector-curvature="0"
     id="path4157"
     d="m 668,1000 2,0 0,-8.0625 4,0 0,8.0625 2,0 0,8 -8,0 z"
     style="fill:#bfbfbf;fill-opacity:1;stroke:none" />
  <path
     style="fill:#bfbfbf;fill-opacity:1;stroke:none"
     d="m 620,1000 2,0 0,-8.0625 4,0 0,8.0625 2,0 0,8 -8,0 z"
     id="path4159"
     inkscape:connector-curvature="0"
     sodipodi:nodetypes="ccccccccc" />
  <path
     style="fill:#bfbfbf;fill-opacity:1;stroke:none"
     d="m 764,1000 2,0 0,-8.0625 4,0 0,8.0625 2,0 0,8 -8,0 z"
     id="path4161"
     inkscape:connector-curvature="0"
     sodipodi:nodetypes="ccccccccc" />
  <path
     sodipodi:nodetypes="ccccccccc"
     inkscape:connector-curvature="0"
     id="path4163"
     d="m 716,1000 2,0 0,-8.0625 4,0 0,8.0625 2,0 0,8 -8,0 z"
     style="fill:#bfbfbf;fill-opacity:1;stroke:none" />
  <path
     style="fill:#bfbfbf;fill-opacity:1;stroke:none"
     d="m 812,1000 2,0 0,-8.0625 4,0 0,8.0625 2,0 0,8 -8,0 z"
     id="path4167"
     inkscape:connector-curvature="0"
     sodipodi:nodetypes="ccccccccc" />
  <path
     style="fill:#bfbfbf;fill-opacity:1;stroke:none"
     d="m 956,1000 2,0 0,-8.0625 4,0 0,8.0625 2,0 0,8 -8,0 z"
     id="path4169"
     inkscape:connector-curvature="0"
     sodipodi:nodetypes="ccccccccc" />
  <path
     sodipodi:nodetypes="ccccccccc"
     inkscape:connector-curvature="0"
     id="path4171"
     d="m 908,1000 2,0 0,-8.0625 4,0 0,8.0625 2,0 0,8 -8,0 z"
     style="fill:#bfbfbf;fill-opacity:1;stroke:none" />
  <path
     style="fill:#bfbfbf;fill-opacity:1;stroke:none"
     d="m 89,972 0,-3 -3,0 0,-2 3,0 0,-3 2,0 0,8 z"
     id="path4177"
     inkscape:connector-curvature="0"
     sodipodi:nodetypes="ccccccccc" />
  <path
     sodipodi:nodetypes="ccccccccc"
     inkscape:connector-curvature="0"
     id="path4179"
     d="m 89,908 0,-3 -3,0 0,-2 3,0 0,-3 2,0 0,8 z"
     style="fill:#bfbfbf;fill-opacity:1;stroke:none" />
  <path
     style="fill:#bfbfbf;fill-opacity:1;stroke:none"
     d="m 89,844 0,-3 -3,0 0,-2 3,0 0,-3 2,0 0,8 z"
     id="path4181"
     inkscape:connector-curvature="0"
     sodipodi:nodetypes="ccccccccc" />
  <path
     sodipodi:nodetypes="ccccccccc"
     inkscape:connector-curvature="0"
     id="path4183"
     d="m 89,786 0,-3 -3,0 0,-2 3,0 0,-3 2,0 0,8 z"
     style="fill:#bfbfbf;fill-opacity:1;stroke:none" />
  <path
     style="fill:#bfbfbf;fill-opacity:1;stroke:none"
     d="m 89,716 0,-3 -3,0 0,-2 3,0 0,-3 2,0 0,8 z"
     id="path4185"
     inkscape:connector-curvature="0"
     sodipodi:nodetypes="ccccccccc" />
  <path
     style="fill:none;stroke:#bfbfbf;stroke-width:24;stroke-linecap:butt;stroke-linejoin:miter;stroke-opacity:1;stroke-miterlimit:4;stroke-dasharray:none"
     d="m 224,24 0,440"
     id="path3965"
     inkscape:connector-curvature="0" />
  <path
     inkscape:connector-curvature="0"
     id="path3967"
     d="M 414.52559,134 33.474411,354"
     style="fill:none;stroke:#bfbfbf;stroke-width:24;stroke-linecap:butt;stroke-linejoin:miter;stroke-miterlimit:4;stroke-opacity:1;stroke-dasharray:none" />
  <path
     style="fill:none;stroke:#bfbfbf;stroke-width:24;stroke-linecap:butt;stroke-linejoin:miter;stroke-miterlimit:4;stroke-opacity:1;stroke-dasharray:none"
     d="M 414.52559,354 33.474411,134"
     id="path3969"
     inkscape:connector-curvature="0" />
  <path
     sodipodi:type="arc"
     style="fill:#808080;fill-opacity:1;stroke:#bfbfbf;stroke-width:24;stroke-miterlimit:4;stroke-opacity:1;stroke-dasharray:none"
     id="path3971"
     sodipodi:cx="224"
     sodipodi:cy="240"
     sodipodi:rx="112"
     sodipodi:ry="112"
     d="m 336,240 a 112,112 0 1 1 -224,0 112,112 0 1 1 224,0 z" />
</svg>
