<?xml version="1.0" encoding="UTF-8" standalone="no"?>
<!-- Created with Inkscape (http://www.inkscape.org/) -->

<svg
   xmlns:dc="http://purl.org/dc/elements/1.1/"
   xmlns:cc="http://creativecommons.org/ns#"
   xmlns:rdf="http://www.w3.org/1999/02/22-rdf-syntax-ns#"
   xmlns:svg="http://www.w3.org/2000/svg"
   xmlns="http://www.w3.org/2000/svg"
   xmlns:xlink="http://www.w3.org/1999/xlink"
   xmlns:sodipodi="http://sodipodi.sourceforge.net/DTD/sodipodi-0.dtd"
   xmlns:inkscape="http://www.inkscape.org/namespaces/inkscape"
   id="svg3057"
   version="1.1"
   inkscape:version="0.48.4 r9939"
   width="1024"
   height="1024"
   sodipodi:docname="unity-diffuse.svg"
   inkscape:export-filename="/home/forest/projects/virtualdragon/models/iss/images/unity-diffuse.png"
   inkscape:export-xdpi="90"
   inkscape:export-ydpi="90">
  <metadata
     id="metadata3063">
    <rdf:RDF>
      <cc:Work
         rdf:about="">
        <dc:format>image/svg+xml</dc:format>
        <dc:type
           rdf:resource="http://purl.org/dc/dcmitype/StillImage" />
        <dc:title></dc:title>
      </cc:Work>
    </rdf:RDF>
  </metadata>
  <defs
     id="defs3061" />
  <sodipodi:namedview
     pagecolor="#bbbbbb"
     bordercolor="#666666"
     borderopacity="1"
     objecttolerance="10"
     gridtolerance="10"
     guidetolerance="10"
     inkscape:pageopacity="1"
     inkscape:pageshadow="2"
     inkscape:window-width="640"
     inkscape:window-height="480"
     id="namedview3059"
     showgrid="true"
     inkscape:zoom="2.2948907"
     inkscape:cx="335.30089"
     inkscape:cy="180.38303"
     inkscape:current-layer="svg3057"
     inkscape:snap-bbox="true">
    <inkscape:grid
       type="xygrid"
       id="grid3086"
       empspacing="5"
       visible="true"
       enabled="true"
       snapvisiblegridlinesonly="true" />
  </sodipodi:namedview>
  <image
     width="1024"
     height="1024"
     xlink:href="file:///home/forest/projects/virtualdragon/models/iss/images/unity-uv.png"
     id="image3065"
     x="-2014.9108"
     y="0" />
  <path
     sodipodi:nodetypes="cccc"
     inkscape:connector-curvature="0"
     id="path3944"
     d="M 520,544 520,124 438,13 438,-6"
     style="fill:none;stroke:#dbdbdb;stroke-width:20;stroke-linecap:butt;stroke-linejoin:miter;stroke-miterlimit:4;stroke-opacity:1;stroke-dasharray:none" />
  <path
     style="fill:none;stroke:#dbdbdb;stroke-width:20;stroke-linecap:butt;stroke-linejoin:miter;stroke-miterlimit:4;stroke-opacity:1;stroke-dasharray:none"
     d="M 415,544 415,124 370,13 370,-6"
     id="path3946"
     inkscape:connector-curvature="0"
     sodipodi:nodetypes="cccc" />
  <path
     style="fill:none;stroke:#dbdbdb;stroke-width:20;stroke-linecap:butt;stroke-linejoin:miter;stroke-miterlimit:4;stroke-opacity:1;stroke-dasharray:none"
     d="m 100,544 0,-420 82,-111 0,-19"
     id="path3924"
     inkscape:connector-curvature="0"
     sodipodi:nodetypes="cccc" />
  <path
     style="fill:#5b5543;stroke:none;stroke-width:8;stroke-linecap:butt;stroke-linejoin:miter;stroke-opacity:1;stroke-miterlimit:4;stroke-dasharray:none;fill-opacity:1;opacity:1"
     d="m 656,43 219,85 149,0 0,522 -149,-1 -219,-8 z"
     id="path3888"
     inkscape:connector-curvature="0" />
  <path
     sodipodi:type="arc"
     style="fill:#ffffff;fill-opacity:1;fill-rule:nonzero;stroke:#000000;stroke-width:20;stroke-miterlimit:4;stroke-opacity:1;stroke-dasharray:none"
     id="path3088"
     sodipodi:cx="675"
     sodipodi:cy="244"
     sodipodi:rx="20"
     sodipodi:ry="20"
     d="m 695,244 a 20,20 0 1 1 -40,0 20,20 0 1 1 40,0 z"
     transform="translate(120,105)" />
  <path
     transform="translate(55,170)"
     d="m 695,244 a 20,20 0 1 1 -40,0 20,20 0 1 1 40,0 z"
     sodipodi:ry="20"
     sodipodi:rx="20"
     sodipodi:cy="244"
     sodipodi:cx="675"
     id="path3858"
     style="fill:#ffffff;fill-opacity:1;fill-rule:nonzero;stroke:#000000;stroke-width:20;stroke-miterlimit:4;stroke-opacity:1;stroke-dasharray:none"
     sodipodi:type="arc" />
  <path
     sodipodi:type="arc"
     style="fill:#ffffff;fill-opacity:1;fill-rule:nonzero;stroke:#000000;stroke-width:20;stroke-miterlimit:4;stroke-opacity:1;stroke-dasharray:none"
     id="path3860"
     sodipodi:cx="675"
     sodipodi:cy="244"
     sodipodi:rx="20"
     sodipodi:ry="20"
     d="m 695,244 a 20,20 0 1 1 -40,0 20,20 0 1 1 40,0 z"
     transform="translate(140,185)" />
  <path
     sodipodi:type="arc"
     style="fill:#ffffff;fill-opacity:1;fill-rule:nonzero;stroke:#000000;stroke-width:15;stroke-miterlimit:4;stroke-opacity:1;stroke-dasharray:none"
     id="path3862"
     sodipodi:cx="675"
     sodipodi:cy="244"
     sodipodi:rx="12"
     sodipodi:ry="12"
     d="m 687,244 a 12,12 0 1 1 -24,0 12,12 0 1 1 24,0 z"
     transform="translate(25.5,299.5)" />
  <path
     transform="translate(60.5,349.02542)"
     d="m 687,244 a 12,12 0 1 1 -24,0 12,12 0 1 1 24,0 z"
     sodipodi:ry="12"
     sodipodi:rx="12"
     sodipodi:cy="244"
     sodipodi:cx="675"
     id="path3864"
     style="fill:#ffffff;fill-opacity:1;fill-rule:nonzero;stroke:#000000;stroke-width:15;stroke-miterlimit:4;stroke-opacity:1;stroke-dasharray:none"
     sodipodi:type="arc" />
  <path
     sodipodi:type="arc"
     style="fill:#ffffff;fill-opacity:1;fill-rule:nonzero;stroke:#000000;stroke-width:15;stroke-miterlimit:4;stroke-opacity:1;stroke-dasharray:none"
     id="path3866"
     sodipodi:cx="675"
     sodipodi:cy="244"
     sodipodi:rx="12"
     sodipodi:ry="12"
     d="m 687,244 a 12,12 0 1 1 -24,0 12,12 0 1 1 24,0 z"
     transform="translate(104.5,309.5)" />
  <path
     transform="translate(144.5,359.5)"
     d="m 687,244 a 12,12 0 1 1 -24,0 12,12 0 1 1 24,0 z"
     sodipodi:ry="12"
     sodipodi:rx="12"
     sodipodi:cy="244"
     sodipodi:cx="675"
     id="path3868"
     style="fill:#ffffff;fill-opacity:1;fill-rule:nonzero;stroke:#000000;stroke-width:15;stroke-miterlimit:4;stroke-opacity:1;stroke-dasharray:none"
     sodipodi:type="arc" />
  <path
     sodipodi:type="arc"
     style="fill:#ffffff;fill-opacity:1;fill-rule:nonzero;stroke:#000000;stroke-width:15;stroke-miterlimit:4;stroke-opacity:1;stroke-dasharray:none"
     id="path3870"
     sodipodi:cx="675"
     sodipodi:cy="244"
     sodipodi:rx="12"
     sodipodi:ry="12"
     d="m 687,244 a 12,12 0 1 1 -24,0 12,12 0 1 1 24,0 z"
     transform="translate(240.5,330.5)" />
  <path
     transform="translate(305.5,330.5)"
     d="m 687,244 a 12,12 0 1 1 -24,0 12,12 0 1 1 24,0 z"
     sodipodi:ry="12"
     sodipodi:rx="12"
     sodipodi:cy="244"
     sodipodi:cx="675"
     id="path3872"
     style="fill:#ffffff;fill-opacity:1;fill-rule:nonzero;stroke:#000000;stroke-width:15;stroke-miterlimit:4;stroke-opacity:1;stroke-dasharray:none"
     sodipodi:type="arc" />
  <path
     transform="translate(240.5,160.5)"
     d="m 687,244 a 12,12 0 1 1 -24,0 12,12 0 1 1 24,0 z"
     sodipodi:ry="12"
     sodipodi:rx="12"
     sodipodi:cy="244"
     sodipodi:cx="675"
     id="path3874"
     style="fill:#ffffff;fill-opacity:1;fill-rule:nonzero;stroke:#000000;stroke-width:15;stroke-miterlimit:4;stroke-opacity:1;stroke-dasharray:none"
     sodipodi:type="arc" />
  <path
     sodipodi:type="arc"
     style="fill:#ffffff;fill-opacity:1;fill-rule:nonzero;stroke:#000000;stroke-width:15;stroke-miterlimit:4;stroke-opacity:1;stroke-dasharray:none"
     id="path3876"
     sodipodi:cx="675"
     sodipodi:cy="244"
     sodipodi:rx="12"
     sodipodi:ry="12"
     d="m 687,244 a 12,12 0 1 1 -24,0 12,12 0 1 1 24,0 z"
     transform="translate(305.5,160.5)" />
  <path
     sodipodi:type="arc"
     style="fill:#ffffff;fill-opacity:1;fill-rule:nonzero;stroke:#000000;stroke-width:15;stroke-miterlimit:4;stroke-opacity:1;stroke-dasharray:none"
     id="path3878"
     sodipodi:cx="675"
     sodipodi:cy="244"
     sodipodi:rx="12"
     sodipodi:ry="12"
     d="m 687,244 a 12,12 0 1 1 -24,0 12,12 0 1 1 24,0 z"
     transform="translate(240.5,-20.5)" />
  <path
     transform="translate(305.5,-20.5)"
     d="m 687,244 a 12,12 0 1 1 -24,0 12,12 0 1 1 24,0 z"
     sodipodi:ry="12"
     sodipodi:rx="12"
     sodipodi:cy="244"
     sodipodi:cx="675"
     id="path3880"
     style="fill:#ffffff;fill-opacity:1;fill-rule:nonzero;stroke:#000000;stroke-width:15;stroke-miterlimit:4;stroke-opacity:1;stroke-dasharray:none"
     sodipodi:type="arc" />
  <path
     transform="translate(40,-85)"
     d="m 695,244 a 20,20 0 1 1 -40,0 20,20 0 1 1 40,0 z"
     sodipodi:ry="20"
     sodipodi:rx="20"
     sodipodi:cy="244"
     sodipodi:cx="675"
     id="path3882"
     style="fill:#ffffff;fill-opacity:1;fill-rule:nonzero;stroke:#000000;stroke-width:20;stroke-miterlimit:4;stroke-opacity:1;stroke-dasharray:none"
     sodipodi:type="arc" />
  <path
     sodipodi:type="arc"
     style="fill:#ffffff;fill-opacity:1;fill-rule:nonzero;stroke:#000000;stroke-width:20;stroke-miterlimit:4;stroke-opacity:1;stroke-dasharray:none"
     id="path3884"
     sodipodi:cx="675"
     sodipodi:cy="244"
     sodipodi:rx="20"
     sodipodi:ry="20"
     d="m 695,244 a 20,20 0 1 1 -40,0 20,20 0 1 1 40,0 z"
     transform="translate(140,-41)" />
  <path
     style="fill:none;stroke:#d6d2c6;stroke-width:30;stroke-linecap:butt;stroke-linejoin:miter;stroke-miterlimit:4;stroke-opacity:1;stroke-dasharray:none"
     d="m 1025,289 -149,0 -220,-64 -26,-1"
     id="path3886"
     inkscape:connector-curvature="0"
     sodipodi:nodetypes="cccc" />
  <path
     inkscape:connector-curvature="0"
     id="path3890"
     d="M 1025,129 876,129 656,48 630,44"
     style="fill:none;stroke:#d6d2c6;stroke-width:30;stroke-linecap:butt;stroke-linejoin:miter;stroke-miterlimit:4;stroke-opacity:1;stroke-dasharray:none"
     sodipodi:nodetypes="ccc" />
  <path
     sodipodi:nodetypes="ccc"
     style="fill:none;stroke:#d6d2c6;stroke-width:30;stroke-linecap:butt;stroke-linejoin:miter;stroke-miterlimit:4;stroke-opacity:1;stroke-dasharray:none"
     d="m 640,644 236,6 149,0"
     id="path3892"
     inkscape:connector-curvature="0" />
  <path
     inkscape:connector-curvature="0"
     id="path3894"
     d="m 1025,504 -149,0 -220,-30 -26,0"
     style="fill:none;stroke:#d6d2c6;stroke-width:30;stroke-linecap:butt;stroke-linejoin:miter;stroke-miterlimit:4;stroke-opacity:1;stroke-dasharray:none"
     sodipodi:nodetypes="ccc" />
  <path
     style="fill:none;stroke:#d6d2c6;stroke-width:32;stroke-linecap:butt;stroke-linejoin:miter;stroke-opacity:1;stroke-miterlimit:4;stroke-dasharray:none"
     d="m 870,124 0,530"
     id="path3896"
     inkscape:connector-curvature="0" />
  <path
     transform="translate(45,80)"
     d="m 695,244 a 20,20 0 1 1 -40,0 20,20 0 1 1 40,0 z"
     sodipodi:ry="20"
     sodipodi:rx="20"
     sodipodi:cy="244"
     sodipodi:cx="675"
     id="path3898"
     style="fill:#ffffff;fill-opacity:1;fill-rule:nonzero;stroke:#000000;stroke-width:20;stroke-miterlimit:4;stroke-opacity:1;stroke-dasharray:none"
     sodipodi:type="arc" />
  <path
     style="fill:none;stroke:#dbdbdb;stroke-width:20;stroke-linecap:butt;stroke-linejoin:miter;stroke-miterlimit:4;stroke-opacity:1;stroke-dasharray:none"
     d="m 310,-6 0,550"
     id="path3900"
     inkscape:connector-curvature="0"
     sodipodi:nodetypes="cc" />
  <path
     sodipodi:nodetypes="cccc"
     inkscape:connector-curvature="0"
     id="path3902"
     d="m 205,544 0,-420 45,-111 0,-19"
     style="fill:none;stroke:#dbdbdb;stroke-width:20;stroke-linecap:butt;stroke-linejoin:miter;stroke-miterlimit:4;stroke-opacity:1;stroke-dasharray:none" />
  <rect
     style="fill:#dbdbdb;fill-opacity:1;fill-rule:nonzero;stroke:none;stroke-opacity:1"
     id="rect3912"
     width="625"
     height="20"
     x="0"
     y="114"
     rx="0"
     ry="0" />
  <rect
     ry="0"
     rx="0"
     y="-1"
     x="0"
     height="30"
     width="625"
     id="rect3914"
     style="fill:#dbdbdb;fill-opacity:1;fill-rule:nonzero;stroke:none" />
  <path
     style="fill:none;stroke:#ffffff;stroke-width:30;stroke-linecap:butt;stroke-linejoin:miter;stroke-miterlimit:4;stroke-opacity:1;stroke-dasharray:none"
     d="m 666.26789,44 0,600"
     id="path3972"
     inkscape:connector-curvature="0"
     inkscape:export-xdpi="90"
     inkscape:export-ydpi="90" />
  <rect
     ry="0"
     rx="0"
     y="579"
     x="0"
     height="10"
     width="625"
     id="rect3974"
     style="fill:#dbdbdb;fill-opacity:1;fill-rule:nonzero;stroke:none" />
  <rect
     style="fill:#dbdbdb;fill-opacity:1;fill-rule:nonzero;stroke:none"
     id="rect3976"
     width="625"
     height="10"
     x="0"
     y="594"
     rx="0"
     ry="0" />
  <rect
     ry="0"
     rx="0"
     y="609"
     x="0"
     height="10"
     width="625"
     id="rect3978"
     style="fill:#dbdbdb;fill-opacity:1;fill-rule:nonzero;stroke:none" />
  <rect
     ry="0"
     rx="0"
     y="237"
     x="0"
     height="4"
     width="625"
     id="rect3980"
     style="fill:#dbdbdb;fill-opacity:1;fill-rule:nonzero;stroke:none" />
  <rect
     style="fill:#dbdbdb;fill-opacity:1;fill-rule:nonzero;stroke:none"
     id="rect3982"
     width="625"
     height="4"
     x="0"
     y="337"
     rx="0"
     ry="0" />
  <rect
     ry="0"
     rx="0"
     y="437"
     x="0"
     height="4"
     width="625"
     id="rect3984"
     style="fill:#dbdbdb;fill-opacity:1;fill-rule:nonzero;stroke:none" />
  <rect
     style="fill:#dbdbdb;fill-opacity:1;fill-rule:nonzero;stroke:none"
     id="rect3986"
     width="625"
     height="10"
     x="0"
     y="564"
     rx="0"
     ry="0" />
  <rect
     ry="0"
     rx="0"
     y="549"
     x="0"
     height="10"
     width="625"
     id="rect3988"
     style="fill:#dbdbdb;fill-opacity:1;fill-rule:nonzero;stroke:none" />
  <path
     style="font-size:medium;font-style:normal;font-variant:normal;font-weight:normal;font-stretch:normal;text-indent:0;text-align:start;text-decoration:none;line-height:normal;letter-spacing:normal;word-spacing:normal;text-transform:none;direction:ltr;block-progression:tb;writing-mode:lr-tb;text-anchor:start;baseline-shift:baseline;color:#000000;fill:#9c7d48;fill-opacity:1;fill-rule:nonzero;stroke:none;stroke-width:40;marker:none;visibility:visible;display:inline;overflow:visible;enable-background:accumulate;font-family:Sans;-inkscape-font-specification:Sans"
     d="m 140,804 a 20.002,20.002 0 0 0 -19.84375,22.46875 l 10,80 A 20.002,20.002 0 0 0 150,924 l 20,0 a 20.002,20.002 0 0 0 19.84375,-17.53125 l 10,-80 A 20.002,20.002 0 0 0 180,804 l -40,0 z"
     id="rect3990"
     inkscape:connector-curvature="0" />
  <rect
     style="fill:#818181;fill-opacity:1;fill-rule:nonzero;stroke:none"
     id="rect3992"
     width="250"
     height="20"
     x="38.08197"
     y="759"
     rx="0"
     ry="0" />
  <path
     sodipodi:type="arc"
     style="opacity:1;fill:#9e9e9e;fill-opacity:1;fill-rule:nonzero;stroke:none"
     id="path3230"
     sodipodi:cx="560"
     sodipodi:cy="864"
     sodipodi:rx="120"
     sodipodi:ry="120"
     d="m 680,864 a 120,120 0 1 1 -240,0 120,120 0 1 1 240,0 z"
     transform="translate(0,-40)" />
  <path
     transform="translate(0,-40)"
     d="m 620,864 a 60,60 0 1 1 -120,0 60,60 0 1 1 120,0 z"
     sodipodi:ry="60"
     sodipodi:rx="60"
     sodipodi:cy="864"
     sodipodi:cx="560"
     id="path4000"
     style="opacity:1;fill:#616161;fill-opacity:1;fill-rule:nonzero;stroke:none"
     sodipodi:type="arc" />
  <path
     sodipodi:type="star"
     style="fill:#5c5c5c;fill-opacity:1;fill-rule:nonzero;stroke:none"
     id="path4002"
     sodipodi:sides="6"
     sodipodi:cx="560"
     sodipodi:cy="734"
     sodipodi:r1="5"
     sodipodi:r2="24.494898"
     sodipodi:arg1="1.5707963"
     sodipodi:arg2="2.0943951"
     inkscape:flatsided="true"
     inkscape:rounded="0"
     inkscape:randomized="0"
     d="m 560,739 -4.33013,-2.5 0,-5 L 560,729 l 4.33013,2.5 0,5 z"
     inkscape:transform-center-y="-90" />
  <path
     inkscape:transform-center-y="-86.933323"
     d="m 560,739 -4.33013,-2.5 0,-5 L 560,729 l 4.33013,2.5 0,5 z"
     inkscape:randomized="0"
     inkscape:rounded="0"
     inkscape:flatsided="true"
     sodipodi:arg2="2.0943951"
     sodipodi:arg1="1.5707963"
     sodipodi:r2="24.494898"
     sodipodi:r1="5"
     sodipodi:cy="734"
     sodipodi:cx="560"
     sodipodi:sides="6"
     id="path4020"
     style="fill:#5c5c5c;fill-opacity:1;fill-rule:nonzero;stroke:none"
     sodipodi:type="star"
     transform="matrix(0.96592583,0.25881905,-0.25881905,0.96592583,232.34843,-116.86155)"
     inkscape:transform-center-x="-23.293712" />
  <path
     inkscape:transform-center-y="-77.942286"
     d="m 560,739 -4.33013,-2.5 0,-5 L 560,729 l 4.33013,2.5 0,5 z"
     inkscape:randomized="0"
     inkscape:rounded="0"
     inkscape:flatsided="true"
     sodipodi:arg2="2.0943951"
     sodipodi:arg1="1.5707963"
     sodipodi:r2="24.494898"
     sodipodi:r1="5"
     sodipodi:cy="734"
     sodipodi:cx="560"
     sodipodi:sides="6"
     id="path4022"
     style="fill:#5c5c5c;fill-opacity:1;fill-rule:nonzero;stroke:none"
     sodipodi:type="star"
     transform="matrix(0.8660254,0.5,-0.5,0.8660254,487.02577,-169.60493)"
     inkscape:transform-center-x="-44.999994" />
  <path
     inkscape:transform-center-x="-63.639603"
     transform="matrix(0.70710678,0.70710679,-0.70710679,0.70710678,746.67619,-154.63579)"
     sodipodi:type="star"
     style="fill:#5c5c5c;fill-opacity:1;fill-rule:nonzero;stroke:none"
     id="path4024"
     sodipodi:sides="6"
     sodipodi:cx="560"
     sodipodi:cy="734"
     sodipodi:r1="5"
     sodipodi:r2="24.494898"
     sodipodi:arg1="1.5707963"
     sodipodi:arg2="2.0943951"
     inkscape:flatsided="true"
     inkscape:rounded="0"
     inkscape:randomized="0"
     d="m 560,739 -4.33013,-2.5 0,-5 L 560,729 l 4.33013,2.5 0,5 z"
     inkscape:transform-center-y="-63.639611" />
  <path
     inkscape:transform-center-y="-45.000002"
     d="m 560,739 -4.33013,-2.5 0,-5 L 560,729 l 4.33013,2.5 0,5 z"
     inkscape:randomized="0"
     inkscape:rounded="0"
     inkscape:flatsided="true"
     sodipodi:arg2="2.0943951"
     sodipodi:arg1="1.5707963"
     sodipodi:r2="24.494898"
     sodipodi:r1="5"
     sodipodi:cy="734"
     sodipodi:cx="560"
     sodipodi:sides="6"
     id="path4026"
     style="fill:#5c5c5c;fill-opacity:1;fill-rule:nonzero;stroke:none"
     sodipodi:type="star"
     transform="matrix(0.5,0.8660254,-0.8660254,0.5,993.60493,-72.974226)"
     inkscape:transform-center-x="-77.942286" />
  <path
     inkscape:transform-center-x="-86.933303"
     transform="matrix(0.25881904,0.96592583,-0.96592583,0.25881904,1210.9842,69.814642)"
     sodipodi:type="star"
     style="fill:#5c5c5c;fill-opacity:1;fill-rule:nonzero;stroke:none"
     id="path4028"
     sodipodi:sides="6"
     sodipodi:cx="560"
     sodipodi:cy="734"
     sodipodi:r1="5"
     sodipodi:r2="24.494898"
     sodipodi:arg1="1.5707963"
     sodipodi:arg2="2.0943951"
     inkscape:flatsided="true"
     inkscape:rounded="0"
     inkscape:randomized="0"
     d="m 560,739 -4.33013,-2.5 0,-5 L 560,729 l 4.33013,2.5 0,5 z"
     inkscape:transform-center-y="-23.293718" />
  <path
     inkscape:transform-center-x="-90"
     transform="matrix(0,1,-1,0,1384,264)"
     sodipodi:type="star"
     style="fill:#5c5c5c;fill-opacity:1;fill-rule:nonzero;stroke:none"
     id="path4030"
     sodipodi:sides="6"
     sodipodi:cx="560"
     sodipodi:cy="734"
     sodipodi:r1="5"
     sodipodi:r2="24.494898"
     sodipodi:arg1="1.5707963"
     sodipodi:arg2="2.0943951"
     inkscape:flatsided="true"
     inkscape:rounded="0"
     inkscape:randomized="0"
     d="m 560,739 -4.33013,-2.5 0,-5 L 560,729 l 4.33013,2.5 0,5 z" />
  <path
     inkscape:transform-center-y="23.293712"
     d="m 560,739 -4.33013,-2.5 0,-5 L 560,729 l 4.33013,2.5 0,5 z"
     inkscape:randomized="0"
     inkscape:rounded="0"
     inkscape:flatsided="true"
     sodipodi:arg2="2.0943951"
     sodipodi:arg1="1.5707963"
     sodipodi:r2="24.494898"
     sodipodi:r1="5"
     sodipodi:cy="734"
     sodipodi:cx="560"
     sodipodi:sides="6"
     id="path4032"
     style="fill:#5c5c5c;fill-opacity:1;fill-rule:nonzero;stroke:none"
     sodipodi:type="star"
     transform="matrix(-0.25881905,0.96592583,-0.96592583,-0.25881905,1500.8616,496.34843)"
     inkscape:transform-center-x="-86.933373" />
  <path
     inkscape:transform-center-x="-77.942256"
     transform="matrix(-0.5,0.8660254,-0.8660254,-0.5,1553.6049,751.02577)"
     sodipodi:type="star"
     style="fill:#5c5c5c;fill-opacity:1;fill-rule:nonzero;stroke:none"
     id="path4034"
     sodipodi:sides="6"
     sodipodi:cx="560"
     sodipodi:cy="734"
     sodipodi:r1="5"
     sodipodi:r2="24.494898"
     sodipodi:arg1="1.5707963"
     sodipodi:arg2="2.0943951"
     inkscape:flatsided="true"
     inkscape:rounded="0"
     inkscape:randomized="0"
     d="m 560,739 -4.33013,-2.5 0,-5 L 560,729 l 4.33013,2.5 0,5 z"
     inkscape:transform-center-y="44.999993" />
  <path
     inkscape:transform-center-y="63.639612"
     d="m 560,739 -4.33013,-2.5 0,-5 L 560,729 l 4.33013,2.5 0,5 z"
     inkscape:randomized="0"
     inkscape:rounded="0"
     inkscape:flatsided="true"
     sodipodi:arg2="2.0943951"
     sodipodi:arg1="1.5707963"
     sodipodi:r2="24.494898"
     sodipodi:r1="5"
     sodipodi:cy="734"
     sodipodi:cx="560"
     sodipodi:sides="6"
     id="path4036"
     style="fill:#5c5c5c;fill-opacity:1;fill-rule:nonzero;stroke:none"
     sodipodi:type="star"
     transform="matrix(-0.70710679,0.70710678,-0.70710678,-0.70710679,1538.6358,1010.6762)"
     inkscape:transform-center-x="-63.639621" />
  <path
     d="m 560,739 -4.33013,-2.5 0,-5 L 560,729 l 4.33013,2.5 0,5 z"
     inkscape:randomized="0"
     inkscape:rounded="0"
     inkscape:flatsided="true"
     sodipodi:arg2="2.0943951"
     sodipodi:arg1="1.5707963"
     sodipodi:r2="24.494898"
     sodipodi:r1="5"
     sodipodi:cy="734"
     sodipodi:cx="560"
     sodipodi:sides="6"
     id="path4038"
     style="fill:#5c5c5c;fill-opacity:1;fill-rule:nonzero;stroke:none"
     sodipodi:type="star"
     transform="matrix(-0.8660254,0.5,-0.5,-0.8660254,1456.9742,1257.6049)"
     inkscape:transform-center-x="-44.999976"
     inkscape:transform-center-y="77.942256" />
  <path
     inkscape:transform-center-x="-23.29376"
     transform="matrix(-0.96592583,0.25881904,-0.25881904,-0.96592583,1314.1854,1474.9843)"
     sodipodi:type="star"
     style="fill:#5c5c5c;fill-opacity:1;fill-rule:nonzero;stroke:none"
     id="path4040"
     sodipodi:sides="6"
     sodipodi:cx="560"
     sodipodi:cy="734"
     sodipodi:r1="5"
     sodipodi:r2="24.494898"
     sodipodi:arg1="1.5707963"
     sodipodi:arg2="2.0943951"
     inkscape:flatsided="true"
     inkscape:rounded="0"
     inkscape:randomized="0"
     d="m 560,739 -4.33013,-2.5 0,-5 L 560,729 l 4.33013,2.5 0,5 z"
     inkscape:transform-center-y="86.933403" />
  <path
     inkscape:transform-center-y="89.999999"
     d="m 560,739 -4.33013,-2.5 0,-5 L 560,729 l 4.33013,2.5 0,5 z"
     inkscape:randomized="0"
     inkscape:rounded="0"
     inkscape:flatsided="true"
     sodipodi:arg2="2.0943951"
     sodipodi:arg1="1.5707963"
     sodipodi:r2="24.494898"
     sodipodi:r1="5"
     sodipodi:cy="734"
     sodipodi:cx="560"
     sodipodi:sides="6"
     id="path4042"
     style="fill:#5c5c5c;fill-opacity:1;fill-rule:nonzero;stroke:none"
     sodipodi:type="star"
     transform="matrix(-1,0,0,-1,1120,1648)" />
  <path
     inkscape:transform-center-x="23.293711"
     transform="matrix(-0.96592583,-0.25881905,0.25881905,-0.96592583,887.65157,1764.8616)"
     sodipodi:type="star"
     style="fill:#5c5c5c;fill-opacity:1;fill-rule:nonzero;stroke:none"
     id="path4044"
     sodipodi:sides="6"
     sodipodi:cx="560"
     sodipodi:cy="734"
     sodipodi:r1="5"
     sodipodi:r2="24.494898"
     sodipodi:arg1="1.5707963"
     sodipodi:arg2="2.0943951"
     inkscape:flatsided="true"
     inkscape:rounded="0"
     inkscape:randomized="0"
     d="m 560,739 -4.33013,-2.5 0,-5 L 560,729 l 4.33013,2.5 0,5 z"
     inkscape:transform-center-y="86.933372" />
  <path
     inkscape:transform-center-y="77.942256"
     inkscape:transform-center-x="44.999984"
     transform="matrix(-0.8660254,-0.5,0.5,-0.8660254,632.97424,1817.6049)"
     sodipodi:type="star"
     style="fill:#5c5c5c;fill-opacity:1;fill-rule:nonzero;stroke:none"
     id="path4046"
     sodipodi:sides="6"
     sodipodi:cx="560"
     sodipodi:cy="734"
     sodipodi:r1="5"
     sodipodi:r2="24.494898"
     sodipodi:arg1="1.5707963"
     sodipodi:arg2="2.0943951"
     inkscape:flatsided="true"
     inkscape:rounded="0"
     inkscape:randomized="0"
     d="m 560,739 -4.33013,-2.5 0,-5 L 560,729 l 4.33013,2.5 0,5 z" />
  <path
     inkscape:transform-center-y="63.639721"
     d="m 560,739 -4.33013,-2.5 0,-5 L 560,729 l 4.33013,2.5 0,5 z"
     inkscape:randomized="0"
     inkscape:rounded="0"
     inkscape:flatsided="true"
     sodipodi:arg2="2.0943951"
     sodipodi:arg1="1.5707963"
     sodipodi:r2="24.494898"
     sodipodi:r1="5"
     sodipodi:cy="734"
     sodipodi:cx="560"
     sodipodi:sides="6"
     id="path4048"
     style="fill:#5c5c5c;fill-opacity:1;fill-rule:nonzero;stroke:none"
     sodipodi:type="star"
     transform="matrix(-0.70710678,-0.70710679,0.70710679,-0.70710678,373.32376,1802.6359)"
     inkscape:transform-center-x="63.639653" />
  <path
     transform="matrix(-0.5,-0.8660254,0.8660254,-0.5,126.39507,1720.9742)"
     sodipodi:type="star"
     style="fill:#5c5c5c;fill-opacity:1;fill-rule:nonzero;stroke:none"
     id="path4050"
     sodipodi:sides="6"
     sodipodi:cx="560"
     sodipodi:cy="734"
     sodipodi:r1="5"
     sodipodi:r2="24.494898"
     sodipodi:arg1="1.5707963"
     sodipodi:arg2="2.0943951"
     inkscape:flatsided="true"
     inkscape:rounded="0"
     inkscape:randomized="0"
     d="m 560,739 -4.33013,-2.5 0,-5 L 560,729 l 4.33013,2.5 0,5 z"
     inkscape:transform-center-y="44.999976"
     inkscape:transform-center-x="77.942286" />
  <path
     inkscape:transform-center-y="23.29376"
     d="m 560,739 -4.33013,-2.5 0,-5 L 560,729 l 4.33013,2.5 0,5 z"
     inkscape:randomized="0"
     inkscape:rounded="0"
     inkscape:flatsided="true"
     sodipodi:arg2="2.0943951"
     sodipodi:arg1="1.5707963"
     sodipodi:r2="24.494898"
     sodipodi:r1="5"
     sodipodi:cy="734"
     sodipodi:cx="560"
     sodipodi:sides="6"
     id="path4052"
     style="fill:#5c5c5c;fill-opacity:1;fill-rule:nonzero;stroke:none"
     sodipodi:type="star"
     transform="matrix(-0.25881904,-0.96592583,0.96592583,-0.25881904,-90.984262,1578.1854)"
     inkscape:transform-center-x="86.933364" />
  <path
     d="m 560,739 -4.33013,-2.5 0,-5 L 560,729 l 4.33013,2.5 0,5 z"
     inkscape:randomized="0"
     inkscape:rounded="0"
     inkscape:flatsided="true"
     sodipodi:arg2="2.0943951"
     sodipodi:arg1="1.5707963"
     sodipodi:r2="24.494898"
     sodipodi:r1="5"
     sodipodi:cy="734"
     sodipodi:cx="560"
     sodipodi:sides="6"
     id="path4054"
     style="fill:#5c5c5c;fill-opacity:1;fill-rule:nonzero;stroke:none"
     sodipodi:type="star"
     transform="matrix(0,-1,1,0,-263.99996,1384)"
     inkscape:transform-center-x="89.99996" />
  <path
     inkscape:transform-center-x="86.933443"
     transform="matrix(0.25881905,-0.96592583,0.96592583,0.25881905,-380.86167,1151.6516)"
     sodipodi:type="star"
     style="fill:#5c5c5c;fill-opacity:1;fill-rule:nonzero;stroke:none"
     id="path4056"
     sodipodi:sides="6"
     sodipodi:cx="560"
     sodipodi:cy="734"
     sodipodi:r1="5"
     sodipodi:r2="24.494898"
     sodipodi:arg1="1.5707963"
     sodipodi:arg2="2.0943951"
     inkscape:flatsided="true"
     inkscape:rounded="0"
     inkscape:randomized="0"
     d="m 560,739 -4.33013,-2.5 0,-5 L 560,729 l 4.33013,2.5 0,5 z"
     inkscape:transform-center-y="-23.293682" />
  <path
     inkscape:transform-center-x="77.942266"
     inkscape:transform-center-y="-45.000003"
     d="m 560,739 -4.33013,-2.5 0,-5 L 560,729 l 4.33013,2.5 0,5 z"
     inkscape:randomized="0"
     inkscape:rounded="0"
     inkscape:flatsided="true"
     sodipodi:arg2="2.0943951"
     sodipodi:arg1="1.5707963"
     sodipodi:r2="24.494898"
     sodipodi:r1="5"
     sodipodi:cy="734"
     sodipodi:cx="560"
     sodipodi:sides="6"
     id="path4058"
     style="fill:#5c5c5c;fill-opacity:1;fill-rule:nonzero;stroke:none"
     sodipodi:type="star"
     transform="matrix(0.5,-0.8660254,0.8660254,0.5,-433.60491,896.97422)" />
  <path
     inkscape:transform-center-x="63.639671"
     transform="matrix(0.70710679,-0.70710678,0.70710678,0.70710679,-418.63585,637.32379)"
     sodipodi:type="star"
     style="fill:#5c5c5c;fill-opacity:1;fill-rule:nonzero;stroke:none"
     id="path4060"
     sodipodi:sides="6"
     sodipodi:cx="560"
     sodipodi:cy="734"
     sodipodi:r1="5"
     sodipodi:r2="24.494898"
     sodipodi:arg1="1.5707963"
     sodipodi:arg2="2.0943951"
     inkscape:flatsided="true"
     inkscape:rounded="0"
     inkscape:randomized="0"
     d="m 560,739 -4.33013,-2.5 0,-5 L 560,729 l 4.33013,2.5 0,5 z"
     inkscape:transform-center-y="-63.639622" />
  <path
     inkscape:transform-center-x="44.999986"
     transform="matrix(0.8660254,-0.5,0.5,0.8660254,-336.97421,390.3951)"
     sodipodi:type="star"
     style="fill:#5c5c5c;fill-opacity:1;fill-rule:nonzero;stroke:none"
     id="path4062"
     sodipodi:sides="6"
     sodipodi:cx="560"
     sodipodi:cy="734"
     sodipodi:r1="5"
     sodipodi:r2="24.494898"
     sodipodi:arg1="1.5707963"
     sodipodi:arg2="2.0943951"
     inkscape:flatsided="true"
     inkscape:rounded="0"
     inkscape:randomized="0"
     d="m 560,739 -4.33013,-2.5 0,-5 L 560,729 l 4.33013,2.5 0,5 z"
     inkscape:transform-center-y="-77.942256" />
  <path
     inkscape:transform-center-y="-86.933413"
     d="m 560,739 -4.33013,-2.5 0,-5 L 560,729 l 4.33013,2.5 0,5 z"
     inkscape:randomized="0"
     inkscape:rounded="0"
     inkscape:flatsided="true"
     sodipodi:arg2="2.0943951"
     sodipodi:arg1="1.5707963"
     sodipodi:r2="24.494898"
     sodipodi:r1="5"
     sodipodi:cy="734"
     sodipodi:cx="560"
     sodipodi:sides="6"
     id="path4064"
     style="fill:#5c5c5c;fill-opacity:1;fill-rule:nonzero;stroke:none"
     sodipodi:type="star"
     transform="matrix(0.96592583,-0.25881904,0.25881904,0.96592583,-194.18544,173.01569)"
     inkscape:transform-center-x="23.2938" />
  <path
     sodipodi:type="arc"
     style="fill:#969696;fill-opacity:1;fill-rule:nonzero;stroke:none"
     id="path4066"
     sodipodi:cx="560"
     sodipodi:cy="864"
     sodipodi:rx="30"
     sodipodi:ry="30"
     d="m 590,864 a 30,30 0 1 1 -60,0 30,30 0 1 1 60,0 z"
     transform="translate(0,-40)" />
  <rect
     ry="0"
     rx="0"
     y="749"
     x="38.08197"
     height="20"
     width="250"
     id="rect4068"
     style="fill:#dfdfdf;fill-opacity:1;fill-rule:nonzero;stroke:none" />
  <path
     inkscape:transform-center-y="-90"
     d="m 560,739 -4.33013,-2.5 0,-5 L 560,729 l 4.33013,2.5 0,5 z"
     inkscape:randomized="0"
     inkscape:rounded="0"
     inkscape:flatsided="true"
     sodipodi:arg2="2.0943951"
     sodipodi:arg1="1.5707963"
     sodipodi:r2="24.494898"
     sodipodi:r1="5"
     sodipodi:cy="734"
     sodipodi:cx="560"
     sodipodi:sides="6"
     id="path4075"
     style="fill:#5c5c5c;fill-opacity:1;fill-rule:nonzero;stroke:none"
     sodipodi:type="star"
     transform="translate(-375.66987,85)" />
  <path
     transform="translate(-425.66987,85)"
     sodipodi:type="star"
     style="fill:#5c5c5c;fill-opacity:1;fill-rule:nonzero;stroke:none"
     id="path4077"
     sodipodi:sides="6"
     sodipodi:cx="560"
     sodipodi:cy="734"
     sodipodi:r1="5"
     sodipodi:r2="24.494898"
     sodipodi:arg1="1.5707963"
     sodipodi:arg2="2.0943951"
     inkscape:flatsided="true"
     inkscape:rounded="0"
     inkscape:randomized="0"
     d="m 560,739 -4.33013,-2.5 0,-5 L 560,729 l 4.33013,2.5 0,5 z"
     inkscape:transform-center-y="-90" />
  <path
     inkscape:transform-center-y="-90"
     d="m 560,739 -4.33013,-2.5 0,-5 L 560,729 l 4.33013,2.5 0,5 z"
     inkscape:randomized="0"
     inkscape:rounded="0"
     inkscape:flatsided="true"
     sodipodi:arg2="2.0943951"
     sodipodi:arg1="1.5707963"
     sodipodi:r2="24.494898"
     sodipodi:r1="5"
     sodipodi:cy="734"
     sodipodi:cx="560"
     sodipodi:sides="6"
     id="path4079"
     style="fill:#5c5c5c;fill-opacity:1;fill-rule:nonzero;stroke:none"
     sodipodi:type="star"
     transform="translate(-410.66987,175)" />
  <path
     transform="translate(-389.33013,175)"
     sodipodi:type="star"
     style="fill:#5c5c5c;fill-opacity:1;fill-rule:nonzero;stroke:none"
     id="path4081"
     sodipodi:sides="6"
     sodipodi:cx="560"
     sodipodi:cy="734"
     sodipodi:r1="5"
     sodipodi:r2="24.494898"
     sodipodi:arg1="1.5707963"
     sodipodi:arg2="2.0943951"
     inkscape:flatsided="true"
     inkscape:rounded="0"
     inkscape:randomized="0"
     d="m 560,739 -4.33013,-2.5 0,-5 L 560,729 l 4.33013,2.5 0,5 z"
     inkscape:transform-center-y="-90" />
</svg>
